<mxfile host="app.diagrams.net" agent="Mozilla/5.0 (X11; Linux x86_64) AppleWebKit/537.36 (KHTML, like Gecko) Chrome/132.0.0.0 Safari/537.36" version="25.0.3" pages="9">
  <diagram id="C5RBs43oDa-KdzZeNtuy" name="Class">
    <mxGraphModel dx="2029" dy="763" grid="1" gridSize="10" guides="1" tooltips="1" connect="1" arrows="1" fold="1" page="1" pageScale="1" pageWidth="1000" pageHeight="700" math="0" shadow="0">
      <root>
        <mxCell id="WIyWlLk6GJQsqaUBKTNV-0" />
        <mxCell id="WIyWlLk6GJQsqaUBKTNV-1" parent="WIyWlLk6GJQsqaUBKTNV-0" />
        <mxCell id="zkfFHV4jXpPFQw0GAbJ--17" value="Decision Tree" style="swimlane;fontStyle=0;align=center;verticalAlign=top;childLayout=stackLayout;horizontal=1;startSize=26;horizontalStack=0;resizeParent=1;resizeLast=0;collapsible=1;marginBottom=0;rounded=0;shadow=0;strokeWidth=1;" parent="WIyWlLk6GJQsqaUBKTNV-1" vertex="1">
          <mxGeometry x="495" y="120" width="346" height="330" as="geometry">
            <mxRectangle x="550" y="140" width="160" height="26" as="alternateBounds" />
          </mxGeometry>
        </mxCell>
        <mxCell id="zkfFHV4jXpPFQw0GAbJ--18" value="root: object (initialized as None)" style="text;align=left;verticalAlign=top;spacingLeft=4;spacingRight=4;overflow=hidden;rotatable=0;points=[[0,0.5],[1,0.5]];portConstraint=eastwest;fontColor=#0000FF;" parent="zkfFHV4jXpPFQw0GAbJ--17" vertex="1">
          <mxGeometry y="26" width="346" height="26" as="geometry" />
        </mxCell>
        <mxCell id="zkfFHV4jXpPFQw0GAbJ--19" value="min_samples_split: int (initialize min_samples_split = 2)" style="text;align=left;verticalAlign=top;spacingLeft=4;spacingRight=4;overflow=hidden;rotatable=0;points=[[0,0.5],[1,0.5]];portConstraint=eastwest;rounded=0;shadow=0;html=0;fontColor=#0000FF;" parent="zkfFHV4jXpPFQw0GAbJ--17" vertex="1">
          <mxGeometry y="52" width="346" height="26" as="geometry" />
        </mxCell>
        <mxCell id="zkfFHV4jXpPFQw0GAbJ--20" value="max_depth: int (initialize max_depth = 2)" style="text;align=left;verticalAlign=top;spacingLeft=4;spacingRight=4;overflow=hidden;rotatable=0;points=[[0,0.5],[1,0.5]];portConstraint=eastwest;rounded=0;shadow=0;html=0;fontColor=#0000FF;" parent="zkfFHV4jXpPFQw0GAbJ--17" vertex="1">
          <mxGeometry y="78" width="346" height="26" as="geometry" />
        </mxCell>
        <mxCell id="zkfFHV4jXpPFQw0GAbJ--23" value="" style="line;html=1;strokeWidth=1;align=left;verticalAlign=middle;spacingTop=-1;spacingLeft=3;spacingRight=3;rotatable=0;labelPosition=right;points=[];portConstraint=eastwest;" parent="zkfFHV4jXpPFQw0GAbJ--17" vertex="1">
          <mxGeometry y="104" width="346" height="8" as="geometry" />
        </mxCell>
        <mxCell id="zkfFHV4jXpPFQw0GAbJ--24" value="build_tree (dataset, current_depth)" style="text;align=left;verticalAlign=top;spacingLeft=4;spacingRight=4;overflow=hidden;rotatable=0;points=[[0,0.5],[1,0.5]];portConstraint=eastwest;" parent="zkfFHV4jXpPFQw0GAbJ--17" vertex="1">
          <mxGeometry y="112" width="346" height="26" as="geometry" />
        </mxCell>
        <mxCell id="zkfFHV4jXpPFQw0GAbJ--25" value="get_best_split (dataset, num_samples, num_features)" style="text;align=left;verticalAlign=top;spacingLeft=4;spacingRight=4;overflow=hidden;rotatable=0;points=[[0,0.5],[1,0.5]];portConstraint=eastwest;" parent="zkfFHV4jXpPFQw0GAbJ--17" vertex="1">
          <mxGeometry y="138" width="346" height="26" as="geometry" />
        </mxCell>
        <mxCell id="6iNfXg0836lrDofYxSJm-6" value="split (dataset, feature_index, threshold)" style="text;align=left;verticalAlign=top;spacingLeft=4;spacingRight=4;overflow=hidden;rotatable=0;points=[[0,0.5],[1,0.5]];portConstraint=eastwest;" vertex="1" parent="zkfFHV4jXpPFQw0GAbJ--17">
          <mxGeometry y="164" width="346" height="26" as="geometry" />
        </mxCell>
        <mxCell id="6iNfXg0836lrDofYxSJm-8" value="calculate_leaf_value (y_train)" style="text;align=left;verticalAlign=top;spacingLeft=4;spacingRight=4;overflow=hidden;rotatable=0;points=[[0,0.5],[1,0.5]];portConstraint=eastwest;" vertex="1" parent="zkfFHV4jXpPFQw0GAbJ--17">
          <mxGeometry y="190" width="346" height="26" as="geometry" />
        </mxCell>
        <mxCell id="6iNfXg0836lrDofYxSJm-7" value="variance_reduction (parent, left_child, right_child)" style="text;align=left;verticalAlign=top;spacingLeft=4;spacingRight=4;overflow=hidden;rotatable=0;points=[[0,0.5],[1,0.5]];portConstraint=eastwest;" vertex="1" parent="zkfFHV4jXpPFQw0GAbJ--17">
          <mxGeometry y="216" width="346" height="26" as="geometry" />
        </mxCell>
        <mxCell id="6iNfXg0836lrDofYxSJm-10" value="fit (X_train, Y_train)" style="text;align=left;verticalAlign=top;spacingLeft=4;spacingRight=4;overflow=hidden;rotatable=0;points=[[0,0.5],[1,0.5]];portConstraint=eastwest;" vertex="1" parent="zkfFHV4jXpPFQw0GAbJ--17">
          <mxGeometry y="242" width="346" height="26" as="geometry" />
        </mxCell>
        <mxCell id="6iNfXg0836lrDofYxSJm-11" value="make_prediction (x_test, tree)" style="text;align=left;verticalAlign=top;spacingLeft=4;spacingRight=4;overflow=hidden;rotatable=0;points=[[0,0.5],[1,0.5]];portConstraint=eastwest;" vertex="1" parent="zkfFHV4jXpPFQw0GAbJ--17">
          <mxGeometry y="268" width="346" height="26" as="geometry" />
        </mxCell>
        <mxCell id="6iNfXg0836lrDofYxSJm-12" value="predict (X_test)" style="text;align=left;verticalAlign=top;spacingLeft=4;spacingRight=4;overflow=hidden;rotatable=0;points=[[0,0.5],[1,0.5]];portConstraint=eastwest;" vertex="1" parent="zkfFHV4jXpPFQw0GAbJ--17">
          <mxGeometry y="294" width="346" height="26" as="geometry" />
        </mxCell>
        <mxCell id="zkfFHV4jXpPFQw0GAbJ--26" value="" style="endArrow=open;shadow=0;strokeWidth=1;rounded=0;curved=0;endFill=1;edgeStyle=elbowEdgeStyle;elbow=vertical;entryX=0;entryY=0.5;entryDx=0;entryDy=0;" parent="WIyWlLk6GJQsqaUBKTNV-1" target="zkfFHV4jXpPFQw0GAbJ--24" edge="1">
          <mxGeometry x="0.5" y="41" relative="1" as="geometry">
            <mxPoint x="320" y="240" as="sourcePoint" />
            <mxPoint x="495" y="240" as="targetPoint" />
            <mxPoint x="-40" y="32" as="offset" />
            <Array as="points">
              <mxPoint x="420" y="245" />
            </Array>
          </mxGeometry>
        </mxCell>
        <mxCell id="zkfFHV4jXpPFQw0GAbJ--29" value="is used in building a tree" style="text;html=1;resizable=0;points=[];;align=center;verticalAlign=middle;labelBackgroundColor=none;rounded=0;shadow=0;strokeWidth=1;fontSize=12;" parent="zkfFHV4jXpPFQw0GAbJ--26" vertex="1" connectable="0">
          <mxGeometry x="0.5" y="49" relative="1" as="geometry">
            <mxPoint x="-50" y="37" as="offset" />
          </mxGeometry>
        </mxCell>
        <mxCell id="zkfFHV4jXpPFQw0GAbJ--0" value="Node" style="swimlane;fontStyle=0;align=center;verticalAlign=top;childLayout=stackLayout;horizontal=1;startSize=26;horizontalStack=0;resizeParent=1;resizeLast=0;collapsible=1;marginBottom=0;rounded=0;shadow=0;strokeWidth=1;" parent="WIyWlLk6GJQsqaUBKTNV-1" vertex="1">
          <mxGeometry x="160" y="120" width="160" height="234" as="geometry">
            <mxRectangle x="130" y="90" width="160" height="26" as="alternateBounds" />
          </mxGeometry>
        </mxCell>
        <mxCell id="zkfFHV4jXpPFQw0GAbJ--1" value="# Decison nodes" style="text;align=left;verticalAlign=top;spacingLeft=4;spacingRight=4;overflow=hidden;rotatable=0;points=[[0,0.5],[1,0.5]];portConstraint=eastwest;fillColor=none;strokeColor=none;fontColor=#0000FF;" parent="zkfFHV4jXpPFQw0GAbJ--0" vertex="1">
          <mxGeometry y="26" width="160" height="26" as="geometry" />
        </mxCell>
        <mxCell id="zkfFHV4jXpPFQw0GAbJ--2" value="feature index" style="text;align=left;verticalAlign=top;spacingLeft=4;spacingRight=4;overflow=hidden;rotatable=0;points=[[0,0.5],[1,0.5]];portConstraint=eastwest;rounded=0;shadow=0;html=0;fillColor=none;strokeColor=none;fontColor=#333333;" parent="zkfFHV4jXpPFQw0GAbJ--0" vertex="1">
          <mxGeometry y="52" width="160" height="26" as="geometry" />
        </mxCell>
        <mxCell id="zkfFHV4jXpPFQw0GAbJ--3" value="threshold" style="text;align=left;verticalAlign=top;spacingLeft=4;spacingRight=4;overflow=hidden;rotatable=0;points=[[0,0.5],[1,0.5]];portConstraint=eastwest;rounded=0;shadow=0;html=0;fillColor=none;strokeColor=none;fontColor=#333333;" parent="zkfFHV4jXpPFQw0GAbJ--0" vertex="1">
          <mxGeometry y="78" width="160" height="26" as="geometry" />
        </mxCell>
        <mxCell id="6iNfXg0836lrDofYxSJm-1" value="left (children) nodes" style="text;align=left;verticalAlign=top;spacingLeft=4;spacingRight=4;overflow=hidden;rotatable=0;points=[[0,0.5],[1,0.5]];portConstraint=eastwest;rounded=0;shadow=0;html=0;fillColor=none;strokeColor=none;fontColor=#333333;" vertex="1" parent="zkfFHV4jXpPFQw0GAbJ--0">
          <mxGeometry y="104" width="160" height="26" as="geometry" />
        </mxCell>
        <mxCell id="6iNfXg0836lrDofYxSJm-2" value="right (children) nodes" style="text;align=left;verticalAlign=top;spacingLeft=4;spacingRight=4;overflow=hidden;rotatable=0;points=[[0,0.5],[1,0.5]];portConstraint=eastwest;rounded=0;shadow=0;html=0;fillColor=none;strokeColor=none;fontColor=#333333;" vertex="1" parent="zkfFHV4jXpPFQw0GAbJ--0">
          <mxGeometry y="130" width="160" height="26" as="geometry" />
        </mxCell>
        <mxCell id="6iNfXg0836lrDofYxSJm-3" value="variance reduction" style="text;align=left;verticalAlign=top;spacingLeft=4;spacingRight=4;overflow=hidden;rotatable=0;points=[[0,0.5],[1,0.5]];portConstraint=eastwest;rounded=0;shadow=0;html=0;fillColor=none;strokeColor=none;fontColor=#333333;" vertex="1" parent="zkfFHV4jXpPFQw0GAbJ--0">
          <mxGeometry y="156" width="160" height="26" as="geometry" />
        </mxCell>
        <mxCell id="6iNfXg0836lrDofYxSJm-4" value="# Leaf nodes" style="text;align=left;verticalAlign=top;spacingLeft=4;spacingRight=4;overflow=hidden;rotatable=0;points=[[0,0.5],[1,0.5]];portConstraint=eastwest;fillColor=none;strokeColor=none;fontColor=#0000FF;" vertex="1" parent="zkfFHV4jXpPFQw0GAbJ--0">
          <mxGeometry y="182" width="160" height="26" as="geometry" />
        </mxCell>
        <mxCell id="6iNfXg0836lrDofYxSJm-5" value="predicting value" style="text;align=left;verticalAlign=top;spacingLeft=4;spacingRight=4;overflow=hidden;rotatable=0;points=[[0,0.5],[1,0.5]];portConstraint=eastwest;fillColor=none;strokeColor=none;fontColor=#333333;" vertex="1" parent="zkfFHV4jXpPFQw0GAbJ--0">
          <mxGeometry y="208" width="160" height="26" as="geometry" />
        </mxCell>
      </root>
    </mxGraphModel>
  </diagram>
  <diagram id="CJJZkgF_6wDFkPXx8R6v" name="build_tree">
    <mxGraphModel dx="2184" dy="1068" grid="1" gridSize="10" guides="1" tooltips="1" connect="1" arrows="1" fold="1" page="1" pageScale="1" pageWidth="1100" pageHeight="850" math="0" shadow="0">
      <root>
        <mxCell id="0" />
        <mxCell id="1" parent="0" />
      </root>
    </mxGraphModel>
  </diagram>
  <diagram id="4TWqHTQ06hDr_GuQ2tc5" name="get_best_split">
    <mxGraphModel dx="1416" dy="1068" grid="1" gridSize="10" guides="1" tooltips="1" connect="1" arrows="1" fold="1" page="1" pageScale="1" pageWidth="827" pageHeight="1169" math="0" shadow="0">
      <root>
        <mxCell id="0" />
        <mxCell id="1" parent="0" />
        <mxCell id="8rgUcsbNsbahyv0fQy1_-41" value="" style="group;fontSize=15;align=left;" vertex="1" connectable="0" parent="1">
          <mxGeometry x="20" y="10" width="802" height="1150" as="geometry" />
        </mxCell>
        <mxCell id="apeU38NQHPxxr15166M9-47" value="&lt;ul style=&quot;forced-color-adjust: none; font-family: Helvetica; font-size: 11px; font-style: normal; font-variant-ligatures: normal; font-variant-caps: normal; font-weight: 400; letter-spacing: normal; orphans: 2; text-align: left; text-indent: 0px; text-transform: none; widows: 2; word-spacing: 0px; -webkit-text-stroke-width: 0px; white-space: nowrap; background-color: rgb(251, 251, 251); text-decoration-thickness: initial; text-decoration-style: initial; text-decoration-color: initial;&quot;&gt;&lt;li style=&quot;forced-color-adjust: none;&quot;&gt;dataset&amp;nbsp;&lt;/li&gt;&lt;li style=&quot;forced-color-adjust: none;&quot;&gt;feature index&lt;/li&gt;&lt;li style=&quot;forced-color-adjust: none;&quot;&gt;threshold&lt;/li&gt;&lt;/ul&gt;" style="text;whiteSpace=wrap;html=1;fillColor=none;fontColor=#0000FF;" vertex="1" parent="8rgUcsbNsbahyv0fQy1_-41">
          <mxGeometry x="120" y="266" width="107" height="90" as="geometry" />
        </mxCell>
        <mxCell id="apeU38NQHPxxr15166M9-1" value="" style="edgeStyle=orthogonalEdgeStyle;rounded=0;orthogonalLoop=1;jettySize=auto;html=1;fontSize=18;" edge="1" parent="8rgUcsbNsbahyv0fQy1_-41" source="apeU38NQHPxxr15166M9-2" target="apeU38NQHPxxr15166M9-3">
          <mxGeometry relative="1" as="geometry" />
        </mxCell>
        <mxCell id="apeU38NQHPxxr15166M9-2" value="get_best_split" style="rounded=1;whiteSpace=wrap;html=1;fontSize=16;" vertex="1" parent="8rgUcsbNsbahyv0fQy1_-41">
          <mxGeometry x="510" width="153" height="40" as="geometry" />
        </mxCell>
        <mxCell id="apeU38NQHPxxr15166M9-3" value="&lt;ol&gt;&lt;li&gt;dataset&lt;/li&gt;&lt;li&gt;num features&lt;/li&gt;&lt;/ol&gt;" style="shape=parallelogram;html=1;strokeWidth=1;perimeter=parallelogramPerimeter;whiteSpace=wrap;rounded=1;arcSize=12;size=0.06;align=left;fontSize=16;fontColor=#0000FF;" vertex="1" parent="8rgUcsbNsbahyv0fQy1_-41">
          <mxGeometry x="499.62" y="66" width="173" height="60" as="geometry" />
        </mxCell>
        <mxCell id="apeU38NQHPxxr15166M9-10" value="&lt;font&gt;for each feature index in the &lt;font color=&quot;#0000ff&quot;&gt;dataset&lt;/font&gt;&amp;nbsp;&lt;/font&gt;" style="html=1;dashed=0;whiteSpace=wrap;shape=mxgraph.dfd.loop;fontSize=16;strokeWidth=1;" vertex="1" parent="8rgUcsbNsbahyv0fQy1_-41">
          <mxGeometry x="509.25" y="149" width="153.75" height="60" as="geometry" />
        </mxCell>
        <mxCell id="apeU38NQHPxxr15166M9-15" style="edgeStyle=orthogonalEdgeStyle;rounded=0;orthogonalLoop=1;jettySize=auto;html=1;entryX=0.5;entryY=0;entryDx=0;entryDy=0;entryPerimeter=0;fontSize=18;" edge="1" parent="8rgUcsbNsbahyv0fQy1_-41" source="apeU38NQHPxxr15166M9-3" target="apeU38NQHPxxr15166M9-10">
          <mxGeometry relative="1" as="geometry" />
        </mxCell>
        <mxCell id="apeU38NQHPxxr15166M9-16" value="End" style="rounded=1;whiteSpace=wrap;html=1;fontSize=16;" vertex="1" parent="8rgUcsbNsbahyv0fQy1_-41">
          <mxGeometry x="526.5" y="1102" width="120" height="40" as="geometry" />
        </mxCell>
        <mxCell id="apeU38NQHPxxr15166M9-18" style="edgeStyle=orthogonalEdgeStyle;rounded=0;orthogonalLoop=1;jettySize=auto;html=1;fontSize=18;entryX=0.5;entryY=0;entryDx=0;entryDy=0;" edge="1" parent="8rgUcsbNsbahyv0fQy1_-41" source="apeU38NQHPxxr15166M9-19" target="apeU38NQHPxxr15166M9-16">
          <mxGeometry relative="1" as="geometry" />
        </mxCell>
        <mxCell id="VyavFp53GEjABs1NTk9y-3" value="" style="edgeStyle=orthogonalEdgeStyle;rounded=0;orthogonalLoop=1;jettySize=auto;html=1;" edge="1" parent="8rgUcsbNsbahyv0fQy1_-41" source="apeU38NQHPxxr15166M9-19" target="apeU38NQHPxxr15166M9-16">
          <mxGeometry relative="1" as="geometry" />
        </mxCell>
        <mxCell id="apeU38NQHPxxr15166M9-19" value="&lt;span style=&quot;background-color: initial;&quot;&gt;outputs: &lt;font color=&quot;#0000ff&quot;&gt;best_spliting&lt;/font&gt;&lt;/span&gt;" style="shape=parallelogram;perimeter=parallelogramPerimeter;whiteSpace=wrap;html=1;dashed=0;fontSize=16;align=center;size=0.08303571428571489;strokeWidth=1;" vertex="1" parent="8rgUcsbNsbahyv0fQy1_-41">
          <mxGeometry x="485.76" y="1030" width="201.49" height="40" as="geometry" />
        </mxCell>
        <mxCell id="8rgUcsbNsbahyv0fQy1_-4" style="edgeStyle=orthogonalEdgeStyle;rounded=0;orthogonalLoop=1;jettySize=auto;html=1;entryX=0.5;entryY=0;entryDx=0;entryDy=0;exitX=0;exitY=0.554;exitDx=0;exitDy=0;exitPerimeter=0;" edge="1" parent="8rgUcsbNsbahyv0fQy1_-41" source="apeU38NQHPxxr15166M9-22" target="apeU38NQHPxxr15166M9-26">
          <mxGeometry relative="1" as="geometry" />
        </mxCell>
        <mxCell id="apeU38NQHPxxr15166M9-22" value="&amp;nbsp; for each &lt;font color=&quot;#0000ff&quot;&gt;threshold&lt;/font&gt; value of&lt;span style=&quot;font-size: 15px;&quot;&gt;&amp;nbsp;a feature&lt;/span&gt;" style="html=1;dashed=0;whiteSpace=wrap;shape=mxgraph.dfd.loop;fontSize=16;strokeWidth=1;" vertex="1" parent="8rgUcsbNsbahyv0fQy1_-41">
          <mxGeometry x="257.37" y="242" width="222.5" height="52" as="geometry" />
        </mxCell>
        <mxCell id="apeU38NQHPxxr15166M9-24" style="edgeStyle=orthogonalEdgeStyle;rounded=0;orthogonalLoop=1;jettySize=auto;html=1;exitX=0.5;exitY=1;exitDx=0;exitDy=0;entryX=0.5;entryY=0;entryDx=0;entryDy=0;entryPerimeter=0;" edge="1" parent="8rgUcsbNsbahyv0fQy1_-41" source="apeU38NQHPxxr15166M9-23" target="apeU38NQHPxxr15166M9-22">
          <mxGeometry relative="1" as="geometry">
            <mxPoint x="341.4533333333335" y="363" as="targetPoint" />
            <mxPoint x="342.12000000000063" y="280" as="sourcePoint" />
          </mxGeometry>
        </mxCell>
        <mxCell id="apeU38NQHPxxr15166M9-25" value="" style="edgeStyle=orthogonalEdgeStyle;rounded=0;orthogonalLoop=1;jettySize=auto;html=1;fontSize=18;exitX=0.003;exitY=0.528;exitDx=0;exitDy=0;exitPerimeter=0;" edge="1" parent="8rgUcsbNsbahyv0fQy1_-41" source="apeU38NQHPxxr15166M9-10" target="apeU38NQHPxxr15166M9-23">
          <mxGeometry relative="1" as="geometry">
            <mxPoint x="560" y="188" as="sourcePoint" />
            <mxPoint x="525.5699999999999" y="308" as="targetPoint" />
          </mxGeometry>
        </mxCell>
        <mxCell id="apeU38NQHPxxr15166M9-23" value="Find all possible values of a feature in the&amp;nbsp;&lt;font color=&quot;#0000ff&quot;&gt;dataset&lt;/font&gt; to be used as&lt;font color=&quot;#0000ff&quot;&gt; the threshold &lt;/font&gt;value in splitting data" style="html=1;dashed=0;whiteSpace=wrap;fontSize=16;strokeWidth=1;" vertex="1" parent="8rgUcsbNsbahyv0fQy1_-41">
          <mxGeometry x="267.12" y="137" width="203" height="86" as="geometry" />
        </mxCell>
        <mxCell id="apeU38NQHPxxr15166M9-51" style="edgeStyle=orthogonalEdgeStyle;rounded=0;orthogonalLoop=1;jettySize=auto;html=1;exitX=0.5;exitY=1;exitDx=0;exitDy=0;entryX=0.5;entryY=0;entryDx=0;entryDy=0;" edge="1" parent="8rgUcsbNsbahyv0fQy1_-41" source="apeU38NQHPxxr15166M9-29" target="apeU38NQHPxxr15166M9-49">
          <mxGeometry relative="1" as="geometry">
            <mxPoint x="272.05" y="538" as="targetPoint" />
          </mxGeometry>
        </mxCell>
        <mxCell id="VyavFp53GEjABs1NTk9y-1" value="&lt;font color=&quot;#0000ff&quot;&gt;var: variance reduction&lt;/font&gt;" style="edgeLabel;html=1;align=center;verticalAlign=middle;resizable=0;points=[];" vertex="1" connectable="0" parent="apeU38NQHPxxr15166M9-51">
          <mxGeometry x="-0.3124" y="-1" relative="1" as="geometry">
            <mxPoint x="68" y="7" as="offset" />
          </mxGeometry>
        </mxCell>
        <mxCell id="apeU38NQHPxxr15166M9-46" value="&lt;ul&gt;&lt;li&gt;&lt;font color=&quot;#0000ff&quot;&gt;dataset_left&lt;/font&gt;&lt;/li&gt;&lt;li&gt;&lt;font color=&quot;#0000ff&quot;&gt;dataset_right&lt;/font&gt;&lt;/li&gt;&lt;/ul&gt;" style="edgeLabel;html=1;align=left;verticalAlign=middle;resizable=0;points=[];labelBackgroundColor=none;" vertex="1" connectable="0" parent="8rgUcsbNsbahyv0fQy1_-41">
          <mxGeometry x="110.00269145516017" y="442.9978647208301" as="geometry">
            <mxPoint x="-2" as="offset" />
          </mxGeometry>
        </mxCell>
        <mxCell id="8rgUcsbNsbahyv0fQy1_-38" style="edgeStyle=orthogonalEdgeStyle;rounded=0;orthogonalLoop=1;jettySize=auto;html=1;exitX=0;exitY=0.5;exitDx=0;exitDy=0;entryX=0;entryY=0.5;entryDx=0;entryDy=0;" edge="1" parent="8rgUcsbNsbahyv0fQy1_-41" source="apeU38NQHPxxr15166M9-49" target="zUHdWGqaVGx9syaCzzIi-3">
          <mxGeometry relative="1" as="geometry">
            <mxPoint x="59" y="720" as="targetPoint" />
            <Array as="points">
              <mxPoint x="27" y="620" />
              <mxPoint x="27" y="720" />
            </Array>
          </mxGeometry>
        </mxCell>
        <mxCell id="8rgUcsbNsbahyv0fQy1_-39" value="True" style="edgeLabel;html=1;align=center;verticalAlign=middle;resizable=0;points=[];" vertex="1" connectable="0" parent="8rgUcsbNsbahyv0fQy1_-38">
          <mxGeometry x="-0.7336" y="2" relative="1" as="geometry">
            <mxPoint x="9" y="-12" as="offset" />
          </mxGeometry>
        </mxCell>
        <mxCell id="apeU38NQHPxxr15166M9-49" value="Is the maximum&amp;nbsp;&lt;br&gt;variance reduction ?" style="shape=rhombus;html=1;dashed=0;whiteSpace=wrap;perimeter=rhombusPerimeter;fontSize=13;" vertex="1" parent="8rgUcsbNsbahyv0fQy1_-41">
          <mxGeometry x="50.5" y="575" width="160" height="90" as="geometry" />
        </mxCell>
        <mxCell id="8rgUcsbNsbahyv0fQy1_-24" style="edgeStyle=orthogonalEdgeStyle;rounded=0;orthogonalLoop=1;jettySize=auto;html=1;entryX=0.5;entryY=0;entryDx=0;entryDy=0;exitX=1;exitY=0.5;exitDx=0;exitDy=0;" edge="1" parent="8rgUcsbNsbahyv0fQy1_-41" source="zUHdWGqaVGx9syaCzzIi-3" target="8rgUcsbNsbahyv0fQy1_-23">
          <mxGeometry relative="1" as="geometry">
            <mxPoint x="250" y="720" as="sourcePoint" />
          </mxGeometry>
        </mxCell>
        <UserObject label="" link="data:page/id,TRsAXUUe3wXNCAHCbz5_" id="8rgUcsbNsbahyv0fQy1_-2">
          <mxCell style="group;fillColor=#dae8fc;strokeColor=#6c8ebf;" vertex="1" connectable="0" parent="8rgUcsbNsbahyv0fQy1_-41">
            <mxGeometry x="23.999999999999986" y="469" width="213" height="72" as="geometry" />
          </mxCell>
        </UserObject>
        <UserObject label="" link="data:page/id,TRsAXUUe3wXNCAHCbz5_" id="apeU38NQHPxxr15166M9-29">
          <mxCell style="verticalLabelPosition=bottom;verticalAlign=top;html=1;shape=process;whiteSpace=wrap;rounded=1;size=0.14;arcSize=6;strokeWidth=2;fillColor=#dae8fc;strokeColor=#6c8ebf;" vertex="1" parent="8rgUcsbNsbahyv0fQy1_-2">
            <mxGeometry width="213" height="72" as="geometry" />
          </mxCell>
        </UserObject>
        <UserObject label="compute &lt;font color=&quot;#0000ff&quot;&gt;variance reduction (var)&lt;/font&gt; using the &lt;font color=&quot;#0000ff&quot;&gt;dataset_left&lt;/font&gt; and &lt;font color=&quot;#0000ff&quot;&gt;right&lt;/font&gt;" link="data:page/id,TRsAXUUe3wXNCAHCbz5_" id="apeU38NQHPxxr15166M9-30">
          <mxCell style="text;html=1;align=center;verticalAlign=middle;whiteSpace=wrap;rounded=0;fontSize=15;" vertex="1" parent="8rgUcsbNsbahyv0fQy1_-2">
            <mxGeometry x="31.38" y="19" width="148.62" height="32" as="geometry" />
          </mxCell>
        </UserObject>
        <UserObject label="" link="data:page/id,B8xFwrr0z_gnE9rui42u" id="8rgUcsbNsbahyv0fQy1_-3">
          <mxCell style="group" vertex="1" connectable="0" parent="8rgUcsbNsbahyv0fQy1_-41">
            <mxGeometry x="20" y="349" width="254.63" height="80" as="geometry" />
          </mxCell>
        </UserObject>
        <UserObject label="" link="data:page/id,B8xFwrr0z_gnE9rui42u" id="apeU38NQHPxxr15166M9-26">
          <mxCell style="verticalLabelPosition=bottom;verticalAlign=top;html=1;shape=process;whiteSpace=wrap;rounded=1;size=0.14;arcSize=6;strokeWidth=2;fillColor=#dae8fc;strokeColor=#6c8ebf;" vertex="1" parent="8rgUcsbNsbahyv0fQy1_-3">
            <mxGeometry x="-17" y="-8" width="254.63" height="80" as="geometry" />
          </mxCell>
        </UserObject>
        <mxCell id="apeU38NQHPxxr15166M9-28" value="split dataset using &lt;br&gt;the &lt;font color=&quot;#0000ff&quot;&gt;threshold&lt;/font&gt;&amp;nbsp;" style="text;html=1;align=center;verticalAlign=middle;whiteSpace=wrap;rounded=0;fontSize=15;" vertex="1" parent="8rgUcsbNsbahyv0fQy1_-3">
          <mxGeometry x="27.37" y="14.75" width="172.63" height="34.5" as="geometry" />
        </mxCell>
        <mxCell id="8rgUcsbNsbahyv0fQy1_-5" style="edgeStyle=orthogonalEdgeStyle;rounded=0;orthogonalLoop=1;jettySize=auto;html=1;entryX=0.5;entryY=0;entryDx=0;entryDy=0;" edge="1" parent="8rgUcsbNsbahyv0fQy1_-41" source="apeU38NQHPxxr15166M9-26" target="apeU38NQHPxxr15166M9-29">
          <mxGeometry relative="1" as="geometry" />
        </mxCell>
        <mxCell id="8rgUcsbNsbahyv0fQy1_-8" style="edgeStyle=orthogonalEdgeStyle;rounded=0;orthogonalLoop=1;jettySize=auto;html=1;exitX=1;exitY=0.5;exitDx=0;exitDy=0;entryX=0.5;entryY=1;entryDx=0;entryDy=0;entryPerimeter=0;" edge="1" parent="8rgUcsbNsbahyv0fQy1_-41" source="apeU38NQHPxxr15166M9-49" target="apeU38NQHPxxr15166M9-22">
          <mxGeometry relative="1" as="geometry">
            <mxPoint x="820" y="370" as="targetPoint" />
            <Array as="points">
              <mxPoint x="211" y="620" />
              <mxPoint x="369" y="620" />
            </Array>
          </mxGeometry>
        </mxCell>
        <mxCell id="8rgUcsbNsbahyv0fQy1_-13" value="False" style="edgeLabel;html=1;align=center;verticalAlign=middle;resizable=0;points=[];" vertex="1" connectable="0" parent="8rgUcsbNsbahyv0fQy1_-8">
          <mxGeometry x="-0.9187" y="1" relative="1" as="geometry">
            <mxPoint x="-3" y="-9" as="offset" />
          </mxGeometry>
        </mxCell>
        <mxCell id="8rgUcsbNsbahyv0fQy1_-30" style="edgeStyle=orthogonalEdgeStyle;rounded=0;orthogonalLoop=1;jettySize=auto;html=1;entryX=0.5;entryY=0;entryDx=0;entryDy=0;" edge="1" parent="8rgUcsbNsbahyv0fQy1_-41" target="8rgUcsbNsbahyv0fQy1_-29">
          <mxGeometry relative="1" as="geometry">
            <mxPoint x="457.3899999999999" y="885" as="sourcePoint" />
          </mxGeometry>
        </mxCell>
        <mxCell id="8rgUcsbNsbahyv0fQy1_-25" style="edgeStyle=orthogonalEdgeStyle;rounded=0;orthogonalLoop=1;jettySize=auto;html=1;exitX=0;exitY=0.5;exitDx=0;exitDy=0;entryX=0;entryY=0.5;entryDx=0;entryDy=0;" edge="1" parent="8rgUcsbNsbahyv0fQy1_-41" source="8rgUcsbNsbahyv0fQy1_-23" target="zUHdWGqaVGx9syaCzzIi-4">
          <mxGeometry relative="1" as="geometry">
            <mxPoint x="292.3899999999999" y="885" as="targetPoint" />
            <Array as="points">
              <mxPoint x="299" y="785" />
              <mxPoint x="299" y="885" />
            </Array>
          </mxGeometry>
        </mxCell>
        <mxCell id="8rgUcsbNsbahyv0fQy1_-26" value="True" style="edgeLabel;html=1;align=center;verticalAlign=middle;resizable=0;points=[];" vertex="1" connectable="0" parent="8rgUcsbNsbahyv0fQy1_-25">
          <mxGeometry x="-0.7566" y="-5" relative="1" as="geometry">
            <mxPoint x="-2" y="-12" as="offset" />
          </mxGeometry>
        </mxCell>
        <mxCell id="8rgUcsbNsbahyv0fQy1_-23" value="check all posible &lt;br&gt;value?" style="shape=rhombus;html=1;dashed=0;whiteSpace=wrap;perimeter=rhombusPerimeter;fontSize=15;" vertex="1" parent="8rgUcsbNsbahyv0fQy1_-41">
          <mxGeometry x="339.62" y="740" width="160" height="90" as="geometry" />
        </mxCell>
        <mxCell id="8rgUcsbNsbahyv0fQy1_-27" style="edgeStyle=orthogonalEdgeStyle;rounded=0;orthogonalLoop=1;jettySize=auto;html=1;exitX=1;exitY=0.5;exitDx=0;exitDy=0;entryX=0.998;entryY=0.378;entryDx=0;entryDy=0;entryPerimeter=0;" edge="1" parent="8rgUcsbNsbahyv0fQy1_-41" source="8rgUcsbNsbahyv0fQy1_-23" target="apeU38NQHPxxr15166M9-22">
          <mxGeometry relative="1" as="geometry">
            <Array as="points">
              <mxPoint x="557" y="785" />
              <mxPoint x="557" y="262" />
            </Array>
          </mxGeometry>
        </mxCell>
        <mxCell id="8rgUcsbNsbahyv0fQy1_-28" value="False" style="edgeLabel;html=1;align=center;verticalAlign=middle;resizable=0;points=[];" vertex="1" connectable="0" parent="8rgUcsbNsbahyv0fQy1_-27">
          <mxGeometry x="-0.6652" y="5" relative="1" as="geometry">
            <mxPoint x="-35" y="33" as="offset" />
          </mxGeometry>
        </mxCell>
        <mxCell id="VyavFp53GEjABs1NTk9y-4" style="edgeStyle=orthogonalEdgeStyle;rounded=0;orthogonalLoop=1;jettySize=auto;html=1;exitX=0;exitY=0.5;exitDx=0;exitDy=0;entryX=0;entryY=0.5;entryDx=0;entryDy=0;" edge="1" parent="8rgUcsbNsbahyv0fQy1_-41" source="8rgUcsbNsbahyv0fQy1_-29" target="apeU38NQHPxxr15166M9-19">
          <mxGeometry relative="1" as="geometry">
            <Array as="points">
              <mxPoint x="447" y="954" />
              <mxPoint x="447" y="1050" />
            </Array>
          </mxGeometry>
        </mxCell>
        <mxCell id="VyavFp53GEjABs1NTk9y-5" value="True" style="edgeLabel;html=1;align=center;verticalAlign=middle;resizable=0;points=[];fontSize=12;" vertex="1" connectable="0" parent="VyavFp53GEjABs1NTk9y-4">
          <mxGeometry x="-0.7408" y="-1" relative="1" as="geometry">
            <mxPoint x="-8" y="-13" as="offset" />
          </mxGeometry>
        </mxCell>
        <mxCell id="8rgUcsbNsbahyv0fQy1_-29" value="check all features?" style="shape=rhombus;html=1;dashed=0;whiteSpace=wrap;perimeter=rhombusPerimeter;fontSize=16;" vertex="1" parent="8rgUcsbNsbahyv0fQy1_-41">
          <mxGeometry x="505.5" y="909" width="160" height="90" as="geometry" />
        </mxCell>
        <mxCell id="8rgUcsbNsbahyv0fQy1_-33" style="edgeStyle=orthogonalEdgeStyle;rounded=0;orthogonalLoop=1;jettySize=auto;html=1;entryX=1.019;entryY=0.49;entryDx=0;entryDy=0;entryPerimeter=0;exitX=1;exitY=0.5;exitDx=0;exitDy=0;" edge="1" parent="8rgUcsbNsbahyv0fQy1_-41" source="8rgUcsbNsbahyv0fQy1_-29" target="apeU38NQHPxxr15166M9-10">
          <mxGeometry relative="1" as="geometry">
            <mxPoint x="690" y="992" as="sourcePoint" />
            <mxPoint x="734.7830000000001" y="179" as="targetPoint" />
            <Array as="points">
              <mxPoint x="787" y="954" />
              <mxPoint x="787" y="178" />
            </Array>
          </mxGeometry>
        </mxCell>
        <mxCell id="8rgUcsbNsbahyv0fQy1_-40" value="False" style="edgeLabel;html=1;align=center;verticalAlign=middle;resizable=0;points=[];fontSize=12;" vertex="1" connectable="0" parent="8rgUcsbNsbahyv0fQy1_-33">
          <mxGeometry x="-0.9279" y="-2" relative="1" as="geometry">
            <mxPoint x="-13" y="-16" as="offset" />
          </mxGeometry>
        </mxCell>
        <mxCell id="zUHdWGqaVGx9syaCzzIi-3" value="&lt;span style=&quot;font-size: 14px;&quot;&gt;store&amp;nbsp;&lt;/span&gt;&lt;div style=&quot;font-size: 14px;&quot;&gt;&lt;font color=&quot;#0000ff&quot;&gt;best_split&amp;nbsp;&lt;/font&gt;with highest variance reduction&lt;/div&gt;" style="html=1;dashed=0;whiteSpace=wrap;shape=partialRectangle;right=0;left=0;" vertex="1" parent="8rgUcsbNsbahyv0fQy1_-41">
          <mxGeometry x="60.5" y="690" width="150" height="60" as="geometry" />
        </mxCell>
        <mxCell id="zUHdWGqaVGx9syaCzzIi-4" value="&lt;span style=&quot;font-size: 14px;&quot;&gt;store&amp;nbsp;&lt;/span&gt;&lt;div style=&quot;font-size: 14px;&quot;&gt;&lt;font color=&quot;#0000ff&quot;&gt;best_split&amp;nbsp;&lt;/font&gt;for each feature&lt;/div&gt;" style="html=1;dashed=0;whiteSpace=wrap;shape=partialRectangle;right=0;left=0;" vertex="1" parent="8rgUcsbNsbahyv0fQy1_-41">
          <mxGeometry x="349.62" y="855" width="150" height="60" as="geometry" />
        </mxCell>
        <mxCell id="zUHdWGqaVGx9syaCzzIi-2" value="&lt;font style=&quot;background-color: initial;&quot; color=&quot;#0000ff&quot;&gt;best_split:&lt;/font&gt;&lt;span style=&quot;background-color: initial;&quot;&gt; dict&amp;nbsp;&lt;/span&gt;&lt;br&gt;&lt;span style=&quot;background-color: initial; color: rgb(0, 0, 255);&quot;&gt;1. best_split [&quot;feature_index&quot;]: int; &lt;/span&gt;&lt;span style=&quot;background-color: initial;&quot;&gt;feature index.&lt;/span&gt;&lt;br&gt;&lt;span style=&quot;background-color: initial; color: rgb(0, 0, 255);&quot;&gt;2. best_split [&quot;threshold&quot;]: float;&lt;/span&gt;&lt;span style=&quot;background-color: initial;&quot;&gt; thresholding value&amp;nbsp; associated with the best splitting.&lt;/span&gt;&lt;br&gt;&lt;span style=&quot;background-color: initial; color: rgb(0, 0, 255);&quot;&gt;3. best_split [&quot;dataset_left&quot;]: np.array;&lt;/span&gt;&lt;span style=&quot;background-color: initial;&quot;&gt;&amp;nbsp;an array of&amp;nbsp; &amp;nbsp;data samples in the left child node.&lt;/span&gt;&lt;br&gt;&lt;span style=&quot;background-color: initial; color: rgb(0, 0, 255);&quot;&gt;4. best_split [&quot;dataset_right&quot;]: np.array;&lt;/span&gt;&lt;span style=&quot;background-color: initial;&quot;&gt;&amp;nbsp;an array of data samples in the right child node&lt;/span&gt;&lt;br&gt;&lt;div&gt;&lt;span style=&quot;background-color: initial; color: rgb(0, 0, 255);&quot;&gt;5. best_split [&quot;var_red&quot;]: float;&lt;/span&gt;&lt;span style=&quot;background-color: initial;&quot;&gt;&amp;nbsp;variance reduction associated with the best splitting&lt;/span&gt;&lt;/div&gt;" style="text;html=1;align=left;verticalAlign=middle;whiteSpace=wrap;rounded=0;fontSize=10;fillColor=#f5f5f5;strokeColor=none;fontColor=#333333;" vertex="1" parent="8rgUcsbNsbahyv0fQy1_-41">
          <mxGeometry x="-7.4399999999999995" y="786" width="285.88" height="140" as="geometry" />
        </mxCell>
        <mxCell id="VyavFp53GEjABs1NTk9y-6" value="" style="strokeWidth=2;html=1;shape=mxgraph.flowchart.annotation_2;align=left;labelPosition=right;pointerEvents=1;rotation=90;" vertex="1" parent="8rgUcsbNsbahyv0fQy1_-41">
          <mxGeometry x="110.5" y="640" width="50" height="290" as="geometry" />
        </mxCell>
      </root>
    </mxGraphModel>
  </diagram>
  <diagram id="B8xFwrr0z_gnE9rui42u" name="split">
    <mxGraphModel dx="1287" dy="971" grid="1" gridSize="10" guides="1" tooltips="1" connect="1" arrows="1" fold="1" page="1" pageScale="1" pageWidth="1100" pageHeight="850" math="0" shadow="0">
      <root>
        <mxCell id="0" />
        <mxCell id="1" parent="0" />
        <mxCell id="i5ZsBL4nF1HjNN1ZQowC-1" style="edgeStyle=orthogonalEdgeStyle;rounded=0;orthogonalLoop=1;jettySize=auto;html=1;entryX=0.5;entryY=0;entryDx=0;entryDy=0;" edge="1" parent="1" source="i5ZsBL4nF1HjNN1ZQowC-2" target="i5ZsBL4nF1HjNN1ZQowC-3">
          <mxGeometry relative="1" as="geometry" />
        </mxCell>
        <mxCell id="i5ZsBL4nF1HjNN1ZQowC-2" value="Split" style="rounded=1;whiteSpace=wrap;html=1;fontSize=16;" vertex="1" parent="1">
          <mxGeometry x="540" y="10" width="120" height="40" as="geometry" />
        </mxCell>
        <mxCell id="i5ZsBL4nF1HjNN1ZQowC-3" value="&lt;ol&gt;&lt;li&gt;&lt;font&gt;Feature index&lt;/font&gt;&lt;/li&gt;&lt;li&gt;&lt;font&gt;Dataset&lt;/font&gt;&lt;/li&gt;&lt;li&gt;&lt;font&gt;Threshold&lt;/font&gt;&lt;/li&gt;&lt;/ol&gt;" style="shape=parallelogram;html=1;strokeWidth=1;perimeter=parallelogramPerimeter;whiteSpace=wrap;rounded=1;arcSize=12;size=0.06;align=left;fontSize=16;fontColor=#0000FF;" vertex="1" parent="1">
          <mxGeometry x="508.5" y="90" width="183" height="90" as="geometry" />
        </mxCell>
        <mxCell id="i5ZsBL4nF1HjNN1ZQowC-4" style="edgeStyle=orthogonalEdgeStyle;rounded=0;orthogonalLoop=1;jettySize=auto;html=1;entryX=0.5;entryY=0;entryDx=0;entryDy=0;exitX=1;exitY=0.5;exitDx=0;exitDy=0;" edge="1" parent="1" source="i5ZsBL4nF1HjNN1ZQowC-8" target="FgaGlR_ZBRU-hrvW6Spn-7">
          <mxGeometry relative="1" as="geometry">
            <mxPoint x="551.75" y="407.0000000000001" as="targetPoint" />
          </mxGeometry>
        </mxCell>
        <mxCell id="i5ZsBL4nF1HjNN1ZQowC-5" value="False" style="edgeLabel;html=1;align=center;verticalAlign=middle;resizable=0;points=[];fontSize=16;" vertex="1" connectable="0" parent="i5ZsBL4nF1HjNN1ZQowC-4">
          <mxGeometry x="-0.3548" y="-4" relative="1" as="geometry">
            <mxPoint x="-10" y="-19" as="offset" />
          </mxGeometry>
        </mxCell>
        <mxCell id="FgaGlR_ZBRU-hrvW6Spn-6" style="edgeStyle=orthogonalEdgeStyle;rounded=0;orthogonalLoop=1;jettySize=auto;html=1;exitX=0;exitY=0.5;exitDx=0;exitDy=0;entryX=0.5;entryY=0;entryDx=0;entryDy=0;" edge="1" parent="1" source="i5ZsBL4nF1HjNN1ZQowC-8" target="FgaGlR_ZBRU-hrvW6Spn-3">
          <mxGeometry relative="1" as="geometry" />
        </mxCell>
        <mxCell id="eXTHluUTqRwXUnfClTDc-1" value="True" style="edgeLabel;html=1;align=center;verticalAlign=middle;resizable=0;points=[];fontSize=15;" vertex="1" connectable="0" parent="FgaGlR_ZBRU-hrvW6Spn-6">
          <mxGeometry x="-0.4108" y="-3" relative="1" as="geometry">
            <mxPoint x="-1" y="-14" as="offset" />
          </mxGeometry>
        </mxCell>
        <mxCell id="i5ZsBL4nF1HjNN1ZQowC-8" value="If a data sample&amp;nbsp;&amp;lt;= &lt;font color=&quot;#3333ff&quot;&gt;Threshold&lt;/font&gt;" style="shape=rhombus;html=1;dashed=0;whiteSpace=wrap;perimeter=rhombusPerimeter;fontSize=16;" vertex="1" parent="1">
          <mxGeometry x="283" y="282" width="238" height="110" as="geometry" />
        </mxCell>
        <mxCell id="i5ZsBL4nF1HjNN1ZQowC-9" style="edgeStyle=orthogonalEdgeStyle;rounded=0;orthogonalLoop=1;jettySize=auto;html=1;exitX=0.004;exitY=0.473;exitDx=0;exitDy=0;exitPerimeter=0;entryX=0.5;entryY=0;entryDx=0;entryDy=0;fontSize=16;" edge="1" parent="1" source="i5ZsBL4nF1HjNN1ZQowC-10" target="i5ZsBL4nF1HjNN1ZQowC-8">
          <mxGeometry relative="1" as="geometry" />
        </mxCell>
        <mxCell id="i5ZsBL4nF1HjNN1ZQowC-10" value="For all data samples in &lt;font color=&quot;#0000ff&quot;&gt;dataset&lt;/font&gt;&amp;nbsp;at &lt;font color=&quot;#0000ff&quot;&gt;feature index&lt;/font&gt;" style="html=1;dashed=0;whiteSpace=wrap;shape=mxgraph.dfd.loop;fontSize=16;" vertex="1" parent="1">
          <mxGeometry x="496.5" y="220" width="207" height="50" as="geometry" />
        </mxCell>
        <mxCell id="i5ZsBL4nF1HjNN1ZQowC-11" style="edgeStyle=orthogonalEdgeStyle;rounded=0;orthogonalLoop=1;jettySize=auto;html=1;entryX=0.5;entryY=0;entryDx=0;entryDy=0;entryPerimeter=0;fontSize=16;" edge="1" parent="1" source="i5ZsBL4nF1HjNN1ZQowC-3" target="i5ZsBL4nF1HjNN1ZQowC-10">
          <mxGeometry relative="1" as="geometry" />
        </mxCell>
        <mxCell id="i5ZsBL4nF1HjNN1ZQowC-12" value="End" style="rounded=1;whiteSpace=wrap;html=1;fontSize=16;" vertex="1" parent="1">
          <mxGeometry x="539.5" y="800" width="120" height="40" as="geometry" />
        </mxCell>
        <mxCell id="i5ZsBL4nF1HjNN1ZQowC-13" style="edgeStyle=orthogonalEdgeStyle;rounded=0;orthogonalLoop=1;jettySize=auto;html=1;fontSize=16;" edge="1" parent="1" source="i5ZsBL4nF1HjNN1ZQowC-14" target="i5ZsBL4nF1HjNN1ZQowC-12">
          <mxGeometry relative="1" as="geometry" />
        </mxCell>
        <mxCell id="i5ZsBL4nF1HjNN1ZQowC-14" value="&lt;span style=&quot;background-color: initial;&quot;&gt;Outputs:&lt;/span&gt;&lt;br&gt;&lt;span style=&quot;background-color: initial;&quot;&gt;1. &lt;font color=&quot;#0000ff&quot;&gt;dataset_left&lt;/font&gt;: np.array; an array of data samples in&amp;nbsp;the right child node&lt;/span&gt;&lt;br&gt;&lt;div&gt;2.&amp;nbsp;&lt;span style=&quot;background-color: initial;&quot;&gt;&lt;font color=&quot;#0000ff&quot;&gt;dataset_right&lt;/font&gt;:&lt;/span&gt;&lt;span style=&quot;background-color: initial;&quot;&gt;&amp;nbsp;&lt;/span&gt;&lt;span style=&quot;background-color: initial;&quot;&gt;np.&lt;/span&gt;&lt;span style=&quot;background-color: initial;&quot;&gt;array; an array of data samples in&amp;nbsp;&lt;/span&gt;&lt;span style=&quot;background-color: initial;&quot;&gt;the left child node&lt;/span&gt;&lt;/div&gt;" style="shape=parallelogram;perimeter=parallelogramPerimeter;whiteSpace=wrap;html=1;dashed=0;fontSize=16;align=center;size=0.020682808449616678;" vertex="1" parent="1">
          <mxGeometry x="404.1" y="670" width="390.81" height="108" as="geometry" />
        </mxCell>
        <mxCell id="i5ZsBL4nF1HjNN1ZQowC-17" style="edgeStyle=orthogonalEdgeStyle;rounded=0;orthogonalLoop=1;jettySize=auto;html=1;entryX=0.5;entryY=0;entryDx=0;entryDy=0;fontSize=16;exitX=0.5;exitY=1;exitDx=0;exitDy=0;" edge="1" parent="1" source="FgaGlR_ZBRU-hrvW6Spn-7" target="i5ZsBL4nF1HjNN1ZQowC-21">
          <mxGeometry relative="1" as="geometry">
            <mxPoint x="666.5000000000002" y="437.0000000000001" as="sourcePoint" />
          </mxGeometry>
        </mxCell>
        <mxCell id="i5ZsBL4nF1HjNN1ZQowC-21" value="check all &lt;br&gt;data samples ?" style="shape=rhombus;html=1;dashed=0;whiteSpace=wrap;perimeter=rhombusPerimeter;fontSize=16;" vertex="1" parent="1">
          <mxGeometry x="499.5" y="562" width="200" height="90" as="geometry" />
        </mxCell>
        <mxCell id="i5ZsBL4nF1HjNN1ZQowC-22" style="edgeStyle=orthogonalEdgeStyle;rounded=0;orthogonalLoop=1;jettySize=auto;html=1;entryX=0.993;entryY=0.467;entryDx=0;entryDy=0;entryPerimeter=0;fontSize=16;" edge="1" parent="1" source="i5ZsBL4nF1HjNN1ZQowC-21" target="i5ZsBL4nF1HjNN1ZQowC-10">
          <mxGeometry relative="1" as="geometry">
            <Array as="points">
              <mxPoint x="850" y="607" />
              <mxPoint x="850" y="243" />
            </Array>
          </mxGeometry>
        </mxCell>
        <mxCell id="i5ZsBL4nF1HjNN1ZQowC-23" value="False" style="edgeLabel;html=1;align=center;verticalAlign=middle;resizable=0;points=[];fontSize=16;" vertex="1" connectable="0" parent="i5ZsBL4nF1HjNN1ZQowC-22">
          <mxGeometry x="-0.9226" y="-5" relative="1" as="geometry">
            <mxPoint x="6" y="-22" as="offset" />
          </mxGeometry>
        </mxCell>
        <mxCell id="FgaGlR_ZBRU-hrvW6Spn-1" style="edgeStyle=orthogonalEdgeStyle;rounded=0;orthogonalLoop=1;jettySize=auto;html=1;exitX=0;exitY=0.5;exitDx=0;exitDy=0;entryX=0;entryY=0.5;entryDx=0;entryDy=0;" edge="1" parent="1" source="i5ZsBL4nF1HjNN1ZQowC-21" target="i5ZsBL4nF1HjNN1ZQowC-14">
          <mxGeometry relative="1" as="geometry">
            <Array as="points">
              <mxPoint x="370" y="607" />
              <mxPoint x="370" y="724" />
            </Array>
          </mxGeometry>
        </mxCell>
        <mxCell id="FgaGlR_ZBRU-hrvW6Spn-2" value="True" style="edgeLabel;html=1;align=center;verticalAlign=middle;resizable=0;points=[];fontSize=16;" vertex="1" connectable="0" parent="FgaGlR_ZBRU-hrvW6Spn-1">
          <mxGeometry x="-0.6077" y="2" relative="1" as="geometry">
            <mxPoint x="19" y="-19" as="offset" />
          </mxGeometry>
        </mxCell>
        <mxCell id="FgaGlR_ZBRU-hrvW6Spn-8" style="edgeStyle=orthogonalEdgeStyle;rounded=0;orthogonalLoop=1;jettySize=auto;html=1;exitX=0.5;exitY=1;exitDx=0;exitDy=0;entryX=0.5;entryY=0;entryDx=0;entryDy=0;" edge="1" parent="1" source="FgaGlR_ZBRU-hrvW6Spn-3" target="i5ZsBL4nF1HjNN1ZQowC-21">
          <mxGeometry relative="1" as="geometry">
            <Array as="points">
              <mxPoint x="235" y="508" />
              <mxPoint x="599" y="508" />
            </Array>
          </mxGeometry>
        </mxCell>
        <mxCell id="FgaGlR_ZBRU-hrvW6Spn-3" value="&lt;span style=&quot;font-size: 16px; text-align: left;&quot;&gt;store the data sample in left child node&lt;/span&gt;" style="html=1;dashed=0;whiteSpace=wrap;shape=partialRectangle;right=0;left=0;" vertex="1" parent="1">
          <mxGeometry x="150" y="397" width="170" height="57" as="geometry" />
        </mxCell>
        <mxCell id="FgaGlR_ZBRU-hrvW6Spn-7" value="&lt;span style=&quot;font-size: 16px; text-align: left;&quot;&gt;store the data sample in right child node&lt;/span&gt;" style="html=1;dashed=0;whiteSpace=wrap;shape=partialRectangle;right=0;left=0;" vertex="1" parent="1">
          <mxGeometry x="514.5" y="397" width="170" height="57" as="geometry" />
        </mxCell>
      </root>
    </mxGraphModel>
  </diagram>
  <diagram id="JQUMznz98fuhWojNFt71" name="calculate_leaf_value">
    <mxGraphModel dx="950" dy="464" grid="1" gridSize="10" guides="1" tooltips="1" connect="1" arrows="1" fold="1" page="1" pageScale="1" pageWidth="1100" pageHeight="850" math="0" shadow="0">
      <root>
        <mxCell id="0" />
        <mxCell id="1" parent="0" />
        <mxCell id="R8fBRa1v_3sKa2H3fj1P-1" style="edgeStyle=orthogonalEdgeStyle;rounded=0;orthogonalLoop=1;jettySize=auto;html=1;entryX=0.5;entryY=0;entryDx=0;entryDy=0;fontSize=16;" edge="1" parent="1" source="R8fBRa1v_3sKa2H3fj1P-2" target="R8fBRa1v_3sKa2H3fj1P-3">
          <mxGeometry relative="1" as="geometry" />
        </mxCell>
        <mxCell id="R8fBRa1v_3sKa2H3fj1P-2" value="calculate_leaf_value" style="rounded=1;whiteSpace=wrap;html=1;fontSize=16;" vertex="1" parent="1">
          <mxGeometry x="455" y="130" width="170" height="40" as="geometry" />
        </mxCell>
        <mxCell id="R8fBRa1v_3sKa2H3fj1P-25" style="edgeStyle=orthogonalEdgeStyle;rounded=0;orthogonalLoop=1;jettySize=auto;html=1;entryX=0.5;entryY=0;entryDx=0;entryDy=0;fontSize=16;" edge="1" parent="1" source="R8fBRa1v_3sKa2H3fj1P-3" target="R8fBRa1v_3sKa2H3fj1P-24">
          <mxGeometry relative="1" as="geometry" />
        </mxCell>
        <mxCell id="R8fBRa1v_3sKa2H3fj1P-3" value="&lt;span style=&quot;background-color: initial;&quot;&gt;y_train&lt;/span&gt;" style="shape=parallelogram;html=1;strokeWidth=1;perimeter=parallelogramPerimeter;whiteSpace=wrap;rounded=1;arcSize=12;size=0.06;align=center;fontSize=16;fontColor=#0000FF;" vertex="1" parent="1">
          <mxGeometry x="490" y="210" width="101.5" height="40" as="geometry" />
        </mxCell>
        <mxCell id="R8fBRa1v_3sKa2H3fj1P-12" value="End" style="rounded=1;whiteSpace=wrap;html=1;fontSize=16;" vertex="1" parent="1">
          <mxGeometry x="480" y="530" width="120" height="40" as="geometry" />
        </mxCell>
        <mxCell id="R8fBRa1v_3sKa2H3fj1P-13" style="edgeStyle=orthogonalEdgeStyle;rounded=0;orthogonalLoop=1;jettySize=auto;html=1;fontSize=16;" edge="1" parent="1" source="R8fBRa1v_3sKa2H3fj1P-14" target="R8fBRa1v_3sKa2H3fj1P-12">
          <mxGeometry relative="1" as="geometry" />
        </mxCell>
        <mxCell id="R8fBRa1v_3sKa2H3fj1P-14" value="&lt;span style=&quot;background-color: initial;&quot;&gt;Outputs:&lt;/span&gt;&lt;br&gt;&lt;font color=&quot;#0000ff&quot;&gt;val: float&lt;/font&gt;; mean of y_train" style="shape=parallelogram;perimeter=parallelogramPerimeter;whiteSpace=wrap;html=1;dashed=0;fontSize=16;align=center;size=0.08303571428571489;" vertex="1" parent="1">
          <mxGeometry x="400" y="420" width="280" height="60" as="geometry" />
        </mxCell>
        <mxCell id="R8fBRa1v_3sKa2H3fj1P-26" style="edgeStyle=orthogonalEdgeStyle;rounded=0;orthogonalLoop=1;jettySize=auto;html=1;entryX=0.5;entryY=0;entryDx=0;entryDy=0;fontSize=16;" edge="1" parent="1" source="R8fBRa1v_3sKa2H3fj1P-24" target="R8fBRa1v_3sKa2H3fj1P-14">
          <mxGeometry relative="1" as="geometry" />
        </mxCell>
        <mxCell id="R8fBRa1v_3sKa2H3fj1P-24" value="mean(&lt;font color=&quot;#0000ff&quot;&gt;y_train&lt;/font&gt;)" style="html=1;dashed=0;whiteSpace=wrap;fontSize=16;" vertex="1" parent="1">
          <mxGeometry x="457.87" y="296" width="165.75" height="80" as="geometry" />
        </mxCell>
      </root>
    </mxGraphModel>
  </diagram>
  <diagram id="TRsAXUUe3wXNCAHCbz5_" name="variance_reduction">
    <mxGraphModel dx="1287" dy="971" grid="1" gridSize="10" guides="1" tooltips="1" connect="1" arrows="1" fold="1" page="1" pageScale="1" pageWidth="1100" pageHeight="850" math="0" shadow="0">
      <root>
        <mxCell id="0" />
        <mxCell id="1" parent="0" />
        <mxCell id="UP9mixVANPi-5oAV4AhA-1" style="edgeStyle=orthogonalEdgeStyle;rounded=0;orthogonalLoop=1;jettySize=auto;html=1;entryX=0.5;entryY=0;entryDx=0;entryDy=0;" edge="1" parent="1" source="UP9mixVANPi-5oAV4AhA-2" target="UP9mixVANPi-5oAV4AhA-3">
          <mxGeometry relative="1" as="geometry" />
        </mxCell>
        <mxCell id="UP9mixVANPi-5oAV4AhA-2" value="variance_reduction" style="rounded=1;whiteSpace=wrap;html=1;fontSize=16;" vertex="1" parent="1">
          <mxGeometry x="465" y="70" width="190" height="40" as="geometry" />
        </mxCell>
        <mxCell id="UP9mixVANPi-5oAV4AhA-3" value="&lt;ol&gt;&lt;li&gt;&lt;span style=&quot;background-color: initial;&quot;&gt;left_child&lt;/span&gt;&lt;/li&gt;&lt;li&gt;&lt;span style=&quot;background-color: initial;&quot;&gt;right_child&lt;/span&gt;&lt;/li&gt;&lt;li&gt;&lt;span style=&quot;background-color: initial;&quot;&gt;parent&lt;/span&gt;&lt;/li&gt;&lt;/ol&gt;" style="shape=parallelogram;html=1;strokeWidth=1;perimeter=parallelogramPerimeter;whiteSpace=wrap;rounded=1;arcSize=12;size=0.06;align=left;fontSize=16;fontColor=#0000FF;" vertex="1" parent="1">
          <mxGeometry x="468.5" y="150" width="183" height="90" as="geometry" />
        </mxCell>
        <mxCell id="UP9mixVANPi-5oAV4AhA-11" style="edgeStyle=orthogonalEdgeStyle;rounded=0;orthogonalLoop=1;jettySize=auto;html=1;entryX=0.5;entryY=0;entryDx=0;entryDy=0;entryPerimeter=0;fontSize=16;" edge="1" parent="1" source="UP9mixVANPi-5oAV4AhA-3">
          <mxGeometry relative="1" as="geometry">
            <mxPoint x="560" y="280" as="targetPoint" />
          </mxGeometry>
        </mxCell>
        <mxCell id="UP9mixVANPi-5oAV4AhA-12" value="End" style="rounded=1;whiteSpace=wrap;html=1;fontSize=16;" vertex="1" parent="1">
          <mxGeometry x="500" y="680" width="120" height="40" as="geometry" />
        </mxCell>
        <mxCell id="UP9mixVANPi-5oAV4AhA-13" style="edgeStyle=orthogonalEdgeStyle;rounded=0;orthogonalLoop=1;jettySize=auto;html=1;fontSize=16;" edge="1" parent="1" source="UP9mixVANPi-5oAV4AhA-14" target="UP9mixVANPi-5oAV4AhA-12">
          <mxGeometry relative="1" as="geometry" />
        </mxCell>
        <mxCell id="UP9mixVANPi-5oAV4AhA-14" value="&lt;span style=&quot;background-color: initial;&quot;&gt;Output: &lt;font color=&quot;#0000ff&quot;&gt;reduction:&lt;/font&gt; float; variance reduction&amp;nbsp;&lt;br&gt;&lt;/span&gt;" style="shape=parallelogram;perimeter=parallelogramPerimeter;whiteSpace=wrap;html=1;dashed=0;fontSize=16;align=center;size=0.08303571428571489;" vertex="1" parent="1">
          <mxGeometry x="390" y="570" width="340" height="60" as="geometry" />
        </mxCell>
        <mxCell id="1Qtr_ZwGxgpmvgUlEwk1-3" style="edgeStyle=orthogonalEdgeStyle;rounded=0;orthogonalLoop=1;jettySize=auto;html=1;exitX=0.5;exitY=1;exitDx=0;exitDy=0;entryX=0.5;entryY=0;entryDx=0;entryDy=0;" edge="1" parent="1" source="1Qtr_ZwGxgpmvgUlEwk1-1" target="1Qtr_ZwGxgpmvgUlEwk1-2">
          <mxGeometry relative="1" as="geometry" />
        </mxCell>
        <mxCell id="1Qtr_ZwGxgpmvgUlEwk1-1" value="weight_l = len(left_child) / len(parents)&lt;div&gt;weight_r =&amp;nbsp;&lt;span style=&quot;background-color: initial;&quot;&gt;len(right_child) / len(parents&lt;/span&gt;&lt;span style=&quot;background-color: initial;&quot;&gt;)&lt;/span&gt;&lt;/div&gt;" style="html=1;dashed=0;whiteSpace=wrap;fontSize=16;" vertex="1" parent="1">
          <mxGeometry x="394.25" y="280" width="331.5" height="80" as="geometry" />
        </mxCell>
        <mxCell id="1Qtr_ZwGxgpmvgUlEwk1-4" style="edgeStyle=orthogonalEdgeStyle;rounded=0;orthogonalLoop=1;jettySize=auto;html=1;entryX=0.5;entryY=0;entryDx=0;entryDy=0;" edge="1" parent="1" source="1Qtr_ZwGxgpmvgUlEwk1-2" target="UP9mixVANPi-5oAV4AhA-14">
          <mxGeometry relative="1" as="geometry" />
        </mxCell>
        <mxCell id="1Qtr_ZwGxgpmvgUlEwk1-2" value="reduction = np.var(parent) - (weight_l * np.var(left_child) + weight_r np.var(right_child) )" style="html=1;dashed=0;whiteSpace=wrap;fontSize=16;" vertex="1" parent="1">
          <mxGeometry x="200" y="415" width="720" height="90" as="geometry" />
        </mxCell>
      </root>
    </mxGraphModel>
  </diagram>
  <diagram id="mSjDPchJzTW69cOcng_e" name="fit">
    <mxGraphModel dx="1503" dy="890" grid="1" gridSize="10" guides="1" tooltips="1" connect="1" arrows="1" fold="1" page="1" pageScale="1" pageWidth="1100" pageHeight="850" math="0" shadow="0">
      <root>
        <mxCell id="0" />
        <mxCell id="1" parent="0" />
        <mxCell id="52mPNSUIaN0hlws8aGTC-1" style="edgeStyle=orthogonalEdgeStyle;rounded=0;orthogonalLoop=1;jettySize=auto;html=1;entryX=0.5;entryY=0;entryDx=0;entryDy=0;fontSize=16;" edge="1" parent="1" source="52mPNSUIaN0hlws8aGTC-2" target="52mPNSUIaN0hlws8aGTC-4">
          <mxGeometry relative="1" as="geometry" />
        </mxCell>
        <mxCell id="52mPNSUIaN0hlws8aGTC-2" value="fit" style="rounded=1;whiteSpace=wrap;html=1;fontSize=16;" vertex="1" parent="1">
          <mxGeometry x="233.25" y="130" width="170" height="40" as="geometry" />
        </mxCell>
        <mxCell id="52mPNSUIaN0hlws8aGTC-3" style="edgeStyle=orthogonalEdgeStyle;rounded=0;orthogonalLoop=1;jettySize=auto;html=1;entryX=0.5;entryY=0;entryDx=0;entryDy=0;fontSize=16;" edge="1" parent="1" source="52mPNSUIaN0hlws8aGTC-4" target="52mPNSUIaN0hlws8aGTC-9">
          <mxGeometry relative="1" as="geometry" />
        </mxCell>
        <mxCell id="52mPNSUIaN0hlws8aGTC-4" value="&lt;div&gt;&lt;span style=&quot;background-color: initial;&quot;&gt;1. X_train&lt;/span&gt;&lt;/div&gt;&lt;span style=&quot;background-color: initial;&quot;&gt;2. Y_train&lt;/span&gt;" style="shape=parallelogram;html=1;strokeWidth=1;perimeter=parallelogramPerimeter;whiteSpace=wrap;rounded=1;arcSize=12;size=0.06;align=center;fontSize=16;fontColor=#0000FF;" vertex="1" parent="1">
          <mxGeometry x="268.25" y="210" width="101.5" height="50" as="geometry" />
        </mxCell>
        <mxCell id="52mPNSUIaN0hlws8aGTC-5" value="End" style="rounded=1;whiteSpace=wrap;html=1;fontSize=16;" vertex="1" parent="1">
          <mxGeometry x="259" y="620" width="120" height="40" as="geometry" />
        </mxCell>
        <mxCell id="CURHtZ05mkJwFWTP-j3g-3" style="edgeStyle=orthogonalEdgeStyle;rounded=0;orthogonalLoop=1;jettySize=auto;html=1;entryX=0.5;entryY=0;entryDx=0;entryDy=0;" edge="1" parent="1" source="52mPNSUIaN0hlws8aGTC-9" target="CURHtZ05mkJwFWTP-j3g-1">
          <mxGeometry relative="1" as="geometry" />
        </mxCell>
        <mxCell id="52mPNSUIaN0hlws8aGTC-9" value="&lt;div&gt;dataset = np.concatenate((&lt;font color=&quot;#0000ff&quot;&gt;X_train&lt;/font&gt;, &lt;font color=&quot;#0000ff&quot;&gt;Y_train&lt;/font&gt;), axis=1)&lt;/div&gt;" style="html=1;dashed=0;whiteSpace=wrap;fontSize=16;" vertex="1" parent="1">
          <mxGeometry x="184.83999999999997" y="296" width="266.81" height="80" as="geometry" />
        </mxCell>
        <mxCell id="CURHtZ05mkJwFWTP-j3g-4" style="edgeStyle=orthogonalEdgeStyle;rounded=0;orthogonalLoop=1;jettySize=auto;html=1;" edge="1" parent="1" source="CURHtZ05mkJwFWTP-j3g-1" target="52mPNSUIaN0hlws8aGTC-5">
          <mxGeometry relative="1" as="geometry" />
        </mxCell>
        <mxCell id="_jp6YmafVwJcilYFLa-y-14" style="edgeStyle=orthogonalEdgeStyle;rounded=0;orthogonalLoop=1;jettySize=auto;html=1;entryX=0;entryY=0.5;entryDx=0;entryDy=0;" edge="1" parent="1" source="CURHtZ05mkJwFWTP-j3g-1" target="_jp6YmafVwJcilYFLa-y-2">
          <mxGeometry relative="1" as="geometry">
            <Array as="points">
              <mxPoint x="650" y="490" />
            </Array>
          </mxGeometry>
        </mxCell>
        <UserObject label="" link="data:page/id,CJJZkgF_6wDFkPXx8R6v" id="CURHtZ05mkJwFWTP-j3g-1">
          <mxCell style="verticalLabelPosition=bottom;verticalAlign=top;html=1;shape=process;whiteSpace=wrap;rounded=1;size=0.14;arcSize=6;strokeWidth=2;fillColor=#dae8fc;strokeColor=#6c8ebf;" vertex="1" parent="1">
            <mxGeometry x="150" y="420" width="336.49" height="140" as="geometry" />
          </mxCell>
        </UserObject>
        <mxCell id="uOTQg4TkRKsMExRofhQy-1" value="" style="edgeStyle=orthogonalEdgeStyle;rounded=0;orthogonalLoop=1;jettySize=auto;html=1;" edge="1" parent="1" target="52mPNSUIaN0hlws8aGTC-5">
          <mxGeometry relative="1" as="geometry">
            <mxPoint x="319.25" y="560" as="sourcePoint" />
          </mxGeometry>
        </mxCell>
        <mxCell id="8OoM-pEDo72Vp5HVyJ2O-1" value="&lt;font color=&quot;#0000ff&quot;&gt;self.root&lt;/font&gt; = build_tree(&lt;font color=&quot;#0000ff&quot;&gt;dataset&lt;/font&gt;)" style="text;html=1;align=center;verticalAlign=middle;whiteSpace=wrap;rounded=0;fontSize=16;" vertex="1" parent="1">
          <mxGeometry x="208.24" y="475" width="220" height="30" as="geometry" />
        </mxCell>
        <mxCell id="_jp6YmafVwJcilYFLa-y-1" value="Decision Tree" style="swimlane;fontStyle=0;align=center;verticalAlign=top;childLayout=stackLayout;horizontal=1;startSize=26;horizontalStack=0;resizeParent=1;resizeLast=0;collapsible=1;marginBottom=0;rounded=0;shadow=0;strokeWidth=1;" vertex="1" parent="1">
          <mxGeometry x="670" y="451" width="346" height="120" as="geometry">
            <mxRectangle x="630" y="270" width="160" height="26" as="alternateBounds" />
          </mxGeometry>
        </mxCell>
        <mxCell id="_jp6YmafVwJcilYFLa-y-2" value="root: class node" style="text;align=left;verticalAlign=top;spacingLeft=4;spacingRight=4;overflow=hidden;rotatable=0;points=[[0,0.5],[1,0.5]];portConstraint=eastwest;fontColor=#0000FF;" vertex="1" parent="_jp6YmafVwJcilYFLa-y-1">
          <mxGeometry y="26" width="346" height="26" as="geometry" />
        </mxCell>
        <mxCell id="_jp6YmafVwJcilYFLa-y-3" value="min_samples_split: int (initialize min_samples_split = 2)" style="text;align=left;verticalAlign=top;spacingLeft=4;spacingRight=4;overflow=hidden;rotatable=0;points=[[0,0.5],[1,0.5]];portConstraint=eastwest;rounded=0;shadow=0;html=0;fontColor=#0000FF;" vertex="1" parent="_jp6YmafVwJcilYFLa-y-1">
          <mxGeometry y="52" width="346" height="26" as="geometry" />
        </mxCell>
        <mxCell id="_jp6YmafVwJcilYFLa-y-4" value="max_depth: int (initialize max_depth = 2)" style="text;align=left;verticalAlign=top;spacingLeft=4;spacingRight=4;overflow=hidden;rotatable=0;points=[[0,0.5],[1,0.5]];portConstraint=eastwest;rounded=0;shadow=0;html=0;fontColor=#0000FF;" vertex="1" parent="_jp6YmafVwJcilYFLa-y-1">
          <mxGeometry y="78" width="346" height="26" as="geometry" />
        </mxCell>
        <mxCell id="_jp6YmafVwJcilYFLa-y-5" value="" style="line;html=1;strokeWidth=1;align=left;verticalAlign=middle;spacingTop=-1;spacingLeft=3;spacingRight=3;rotatable=0;labelPosition=right;points=[];portConstraint=eastwest;" vertex="1" parent="_jp6YmafVwJcilYFLa-y-1">
          <mxGeometry y="104" width="346" height="8" as="geometry" />
        </mxCell>
      </root>
    </mxGraphModel>
  </diagram>
  <diagram id="RoxqvxVGdssPIyHRh9Ie" name="make_prediction">
    <mxGraphModel dx="2582" dy="971" grid="1" gridSize="10" guides="1" tooltips="1" connect="1" arrows="1" fold="1" page="1" pageScale="1" pageWidth="1000" pageHeight="700" math="0" shadow="0">
      <root>
        <mxCell id="0" />
        <mxCell id="1" parent="0" />
        <mxCell id="ei1dqGWcDJPZf9TsmXg9-1" style="edgeStyle=orthogonalEdgeStyle;rounded=0;orthogonalLoop=1;jettySize=auto;html=1;entryX=0.5;entryY=0;entryDx=0;entryDy=0;fontSize=15;" edge="1" parent="1" source="ei1dqGWcDJPZf9TsmXg9-2" target="ei1dqGWcDJPZf9TsmXg9-3">
          <mxGeometry relative="1" as="geometry" />
        </mxCell>
        <mxCell id="ei1dqGWcDJPZf9TsmXg9-2" value="make_prediction" style="rounded=1;whiteSpace=wrap;html=1;fontSize=15;" vertex="1" parent="1">
          <mxGeometry x="435" y="6" width="170" height="40" as="geometry" />
        </mxCell>
        <mxCell id="ei1dqGWcDJPZf9TsmXg9-3" value="1. x&lt;div&gt;2. root&lt;/div&gt;" style="shape=parallelogram;html=1;strokeWidth=1;perimeter=parallelogramPerimeter;whiteSpace=wrap;rounded=1;arcSize=12;size=0.06;align=center;fontSize=15;fontColor=#0000FF;" vertex="1" parent="1">
          <mxGeometry x="469.25" y="70" width="101.5" height="50" as="geometry" />
        </mxCell>
        <mxCell id="ei1dqGWcDJPZf9TsmXg9-4" value="End" style="rounded=1;whiteSpace=wrap;html=1;fontSize=15;" vertex="1" parent="1">
          <mxGeometry x="470.24" y="648" width="120" height="40" as="geometry" />
        </mxCell>
        <mxCell id="ei1dqGWcDJPZf9TsmXg9-17" style="edgeStyle=orthogonalEdgeStyle;rounded=0;orthogonalLoop=1;jettySize=auto;html=1;entryX=0.5;entryY=0;entryDx=0;entryDy=0;fontSize=15;exitX=0.5;exitY=1;exitDx=0;exitDy=0;" edge="1" parent="1" source="ei1dqGWcDJPZf9TsmXg9-3" target="ei1dqGWcDJPZf9TsmXg9-27">
          <mxGeometry relative="1" as="geometry">
            <mxPoint x="520.0769230769231" y="123" as="sourcePoint" />
            <mxPoint x="520.2400000000002" y="158" as="targetPoint" />
          </mxGeometry>
        </mxCell>
        <mxCell id="ei1dqGWcDJPZf9TsmXg9-24" value="False" style="text;html=1;align=center;verticalAlign=middle;resizable=0;points=[];autosize=1;strokeColor=none;fillColor=none;fontSize=15;" vertex="1" parent="1">
          <mxGeometry x="615.24" y="370" width="60" height="30" as="geometry" />
        </mxCell>
        <mxCell id="ei1dqGWcDJPZf9TsmXg9-25" style="edgeStyle=orthogonalEdgeStyle;rounded=0;orthogonalLoop=1;jettySize=auto;html=1;entryX=0.5;entryY=0;entryDx=0;entryDy=0;fontSize=15;exitX=0.484;exitY=0.999;exitDx=0;exitDy=0;exitPerimeter=0;" edge="1" parent="1" source="ei1dqGWcDJPZf9TsmXg9-26" target="ei1dqGWcDJPZf9TsmXg9-4">
          <mxGeometry relative="1" as="geometry">
            <Array as="points">
              <mxPoint x="276" y="360" />
              <mxPoint x="275" y="630" />
              <mxPoint x="520" y="630" />
            </Array>
          </mxGeometry>
        </mxCell>
        <mxCell id="ei1dqGWcDJPZf9TsmXg9-26" value="&lt;span style=&quot;background-color: initial;&quot;&gt;Output:&lt;/span&gt;&lt;br&gt;&lt;span style=&quot;background-color: initial;&quot;&gt;&lt;font color=&quot;#0000ff&quot;&gt;prediction&lt;/font&gt;: root.value&lt;/span&gt;" style="shape=parallelogram;perimeter=parallelogramPerimeter;whiteSpace=wrap;html=1;dashed=0;fontSize=15;align=center;size=0.084375;" vertex="1" parent="1">
          <mxGeometry x="194" y="295" width="170" height="60" as="geometry" />
        </mxCell>
        <mxCell id="ei1dqGWcDJPZf9TsmXg9-30" style="edgeStyle=orthogonalEdgeStyle;rounded=0;orthogonalLoop=1;jettySize=auto;html=1;exitX=0;exitY=0.5;exitDx=0;exitDy=0;fontSize=15;" edge="1" parent="1" source="ei1dqGWcDJPZf9TsmXg9-27" target="ei1dqGWcDJPZf9TsmXg9-26">
          <mxGeometry relative="1" as="geometry">
            <mxPoint x="340" y="405" as="targetPoint" />
          </mxGeometry>
        </mxCell>
        <mxCell id="ei1dqGWcDJPZf9TsmXg9-32" value="True" style="edgeLabel;html=1;align=center;verticalAlign=middle;resizable=0;points=[];fontSize=15;" vertex="1" connectable="0" parent="ei1dqGWcDJPZf9TsmXg9-30">
          <mxGeometry x="-0.8172" y="-4" relative="1" as="geometry">
            <mxPoint x="-15" y="-11" as="offset" />
          </mxGeometry>
        </mxCell>
        <mxCell id="ei1dqGWcDJPZf9TsmXg9-48" style="edgeStyle=orthogonalEdgeStyle;rounded=0;orthogonalLoop=1;jettySize=auto;html=1;exitX=1;exitY=0.5;exitDx=0;exitDy=0;fontSize=15;" edge="1" parent="1" source="ei1dqGWcDJPZf9TsmXg9-27" target="ei1dqGWcDJPZf9TsmXg9-34">
          <mxGeometry relative="1" as="geometry">
            <Array as="points">
              <mxPoint x="650" y="185" />
              <mxPoint x="650" y="240" />
              <mxPoint x="520" y="240" />
            </Array>
          </mxGeometry>
        </mxCell>
        <mxCell id="ei1dqGWcDJPZf9TsmXg9-49" value="False" style="edgeLabel;html=1;align=center;verticalAlign=middle;resizable=0;points=[];fontSize=15;" vertex="1" connectable="0" parent="ei1dqGWcDJPZf9TsmXg9-48">
          <mxGeometry x="-0.8733" y="-3" relative="1" as="geometry">
            <mxPoint x="28" y="-18" as="offset" />
          </mxGeometry>
        </mxCell>
        <mxCell id="ei1dqGWcDJPZf9TsmXg9-27" value="Is&amp;nbsp;&lt;span style=&quot;color: rgb(0, 0, 255);&quot;&gt;root node&lt;/span&gt;&amp;nbsp;&lt;br&gt;a leaf node&amp;nbsp;?" style="shape=rhombus;html=1;dashed=0;whiteSpace=wrap;perimeter=rhombusPerimeter;fontSize=15;" vertex="1" parent="1">
          <mxGeometry x="439.12" y="140" width="161.76" height="90" as="geometry" />
        </mxCell>
        <mxCell id="ei1dqGWcDJPZf9TsmXg9-41" style="edgeStyle=orthogonalEdgeStyle;rounded=0;orthogonalLoop=1;jettySize=auto;html=1;exitX=1;exitY=0.5;exitDx=0;exitDy=0;fontSize=15;" edge="1" parent="1" source="ei1dqGWcDJPZf9TsmXg9-28" target="ei1dqGWcDJPZf9TsmXg9-40">
          <mxGeometry relative="1" as="geometry" />
        </mxCell>
        <mxCell id="ei1dqGWcDJPZf9TsmXg9-42" style="edgeStyle=orthogonalEdgeStyle;rounded=0;orthogonalLoop=1;jettySize=auto;html=1;exitX=0;exitY=0.5;exitDx=0;exitDy=0;entryX=0.5;entryY=0;entryDx=0;entryDy=0;fontSize=15;" edge="1" parent="1" source="ei1dqGWcDJPZf9TsmXg9-28" target="ei1dqGWcDJPZf9TsmXg9-39">
          <mxGeometry relative="1" as="geometry" />
        </mxCell>
        <mxCell id="ei1dqGWcDJPZf9TsmXg9-28" value="feature_val &amp;lt;= root.threshold" style="shape=rhombus;html=1;dashed=0;whiteSpace=wrap;perimeter=rhombusPerimeter;fontSize=15;" vertex="1" parent="1">
          <mxGeometry x="439.36" y="350" width="161.76" height="90" as="geometry" />
        </mxCell>
        <mxCell id="ei1dqGWcDJPZf9TsmXg9-37" style="edgeStyle=orthogonalEdgeStyle;rounded=0;orthogonalLoop=1;jettySize=auto;html=1;exitX=0.5;exitY=1;exitDx=0;exitDy=0;entryX=0.5;entryY=0;entryDx=0;entryDy=0;fontSize=15;" edge="1" parent="1" source="ei1dqGWcDJPZf9TsmXg9-34" target="ei1dqGWcDJPZf9TsmXg9-28">
          <mxGeometry relative="1" as="geometry" />
        </mxCell>
        <mxCell id="ei1dqGWcDJPZf9TsmXg9-34" value="feature_val:= feature value of &lt;font color=&quot;#0000ff&quot;&gt;x&lt;/font&gt;&amp;nbsp;" style="html=1;dashed=0;whiteSpace=wrap;fontSize=15;" vertex="1" parent="1">
          <mxGeometry x="425.24" y="260" width="190" height="60" as="geometry" />
        </mxCell>
        <mxCell id="ei1dqGWcDJPZf9TsmXg9-50" style="edgeStyle=orthogonalEdgeStyle;rounded=0;orthogonalLoop=1;jettySize=auto;html=1;entryX=0.25;entryY=0;entryDx=0;entryDy=0;fontSize=15;" edge="1" parent="1" source="ei1dqGWcDJPZf9TsmXg9-39" target="ei1dqGWcDJPZf9TsmXg9-46">
          <mxGeometry relative="1" as="geometry" />
        </mxCell>
        <mxCell id="ei1dqGWcDJPZf9TsmXg9-39" value="Predict&amp;nbsp;&lt;font color=&quot;#0000ff&quot;&gt;x &lt;/font&gt;using&lt;br&gt;&lt;font color=&quot;#0000ff&quot;&gt;left child node (root.left).&lt;/font&gt;&lt;div&gt;&lt;font color=&quot;#0000ff&quot;&gt;Thus, set left child node as new root.&lt;/font&gt;&lt;/div&gt;" style="html=1;dashed=0;whiteSpace=wrap;fontSize=11;" vertex="1" parent="1">
          <mxGeometry x="329.25" y="440" width="140" height="60" as="geometry" />
        </mxCell>
        <mxCell id="ei1dqGWcDJPZf9TsmXg9-51" style="edgeStyle=orthogonalEdgeStyle;rounded=0;orthogonalLoop=1;jettySize=auto;html=1;exitX=0.5;exitY=1;exitDx=0;exitDy=0;entryX=0.75;entryY=0;entryDx=0;entryDy=0;fontSize=15;" edge="1" parent="1" source="ei1dqGWcDJPZf9TsmXg9-40" target="ei1dqGWcDJPZf9TsmXg9-46">
          <mxGeometry relative="1" as="geometry" />
        </mxCell>
        <mxCell id="ei1dqGWcDJPZf9TsmXg9-40" value="Predict&amp;nbsp;&lt;font color=&quot;#0000ff&quot;&gt;x &lt;/font&gt;using&lt;br&gt;&lt;font color=&quot;#0000ff&quot;&gt;right child node (root.right).&lt;/font&gt;&lt;div&gt;&lt;span style=&quot;color: rgb(0, 0, 255);&quot;&gt;Thus, set right child node as new root.&lt;/span&gt;&lt;font color=&quot;#0000ff&quot;&gt;&lt;/font&gt;&lt;/div&gt;" style="html=1;dashed=0;whiteSpace=wrap;fontSize=11;" vertex="1" parent="1">
          <mxGeometry x="570.75" y="440" width="150" height="60" as="geometry" />
        </mxCell>
        <mxCell id="ei1dqGWcDJPZf9TsmXg9-43" value="True" style="text;html=1;align=center;verticalAlign=middle;resizable=0;points=[];autosize=1;strokeColor=none;fillColor=none;fontSize=15;" vertex="1" parent="1">
          <mxGeometry x="375" y="370" width="50" height="30" as="geometry" />
        </mxCell>
        <mxCell id="ei1dqGWcDJPZf9TsmXg9-52" style="edgeStyle=orthogonalEdgeStyle;rounded=0;orthogonalLoop=1;jettySize=auto;html=1;exitX=0.5;exitY=1;exitDx=0;exitDy=0;entryX=1;entryY=0.5;entryDx=0;entryDy=0;fontSize=15;" edge="1" parent="1" source="ei1dqGWcDJPZf9TsmXg9-46" target="ei1dqGWcDJPZf9TsmXg9-2">
          <mxGeometry relative="1" as="geometry">
            <Array as="points">
              <mxPoint x="530" y="610" />
              <mxPoint x="770" y="610" />
              <mxPoint x="770" y="26" />
            </Array>
          </mxGeometry>
        </mxCell>
        <mxCell id="ei1dqGWcDJPZf9TsmXg9-46" value="&lt;span style=&quot;background-color: initial;&quot;&gt;Output:&lt;/span&gt;&lt;div&gt;1. x&lt;br&gt;&lt;font color=&quot;#0000ff&quot;&gt;2. new root&lt;/font&gt;&lt;/div&gt;" style="shape=parallelogram;perimeter=parallelogramPerimeter;whiteSpace=wrap;html=1;dashed=0;fontSize=13;align=center;size=0.084375;" vertex="1" parent="1">
          <mxGeometry x="445.24" y="540" width="170" height="50" as="geometry" />
        </mxCell>
      </root>
    </mxGraphModel>
  </diagram>
  <diagram id="NNiJCJe-eM0r1Qe7N8Yn" name="predict">
    <mxGraphModel dx="1287" dy="971" grid="1" gridSize="10" guides="1" tooltips="1" connect="1" arrows="1" fold="1" page="1" pageScale="1" pageWidth="1000" pageHeight="700" math="0" shadow="0">
      <root>
        <mxCell id="0" />
        <mxCell id="1" parent="0" />
        <mxCell id="Jfb6o76TlbEkAbHcnxdX-1" style="edgeStyle=orthogonalEdgeStyle;rounded=0;orthogonalLoop=1;jettySize=auto;html=1;entryX=0.5;entryY=0;entryDx=0;entryDy=0;fontSize=15;" edge="1" parent="1" source="Jfb6o76TlbEkAbHcnxdX-2" target="Jfb6o76TlbEkAbHcnxdX-4">
          <mxGeometry relative="1" as="geometry" />
        </mxCell>
        <mxCell id="Jfb6o76TlbEkAbHcnxdX-2" value="predict" style="rounded=1;whiteSpace=wrap;html=1;fontSize=15;" vertex="1" parent="1">
          <mxGeometry x="435" y="6" width="170" height="40" as="geometry" />
        </mxCell>
        <mxCell id="Jfb6o76TlbEkAbHcnxdX-4" value="X_test" style="shape=parallelogram;html=1;strokeWidth=1;perimeter=parallelogramPerimeter;whiteSpace=wrap;rounded=1;arcSize=12;size=0.06;align=center;fontSize=15;fontColor=#0000FF;" vertex="1" parent="1">
          <mxGeometry x="469.25" y="78" width="101.5" height="50" as="geometry" />
        </mxCell>
        <mxCell id="Jfb6o76TlbEkAbHcnxdX-5" value="End" style="rounded=1;whiteSpace=wrap;html=1;fontSize=15;" vertex="1" parent="1">
          <mxGeometry x="460.24" y="648" width="120" height="40" as="geometry" />
        </mxCell>
        <UserObject label="" link="data:page/id,RoxqvxVGdssPIyHRh9Ie" id="Jfb6o76TlbEkAbHcnxdX-10">
          <mxCell style="verticalLabelPosition=bottom;verticalAlign=top;html=1;shape=process;whiteSpace=wrap;rounded=1;size=0.14;arcSize=6;strokeWidth=2;fillColor=#dae8fc;strokeColor=#6c8ebf;fontSize=15;" vertex="1" parent="1">
            <mxGeometry x="351.99" y="237" width="336.49" height="50" as="geometry" />
          </mxCell>
        </UserObject>
        <mxCell id="GlBKLhRnwPfLVj4DwTXZ-8" style="edgeStyle=orthogonalEdgeStyle;rounded=0;orthogonalLoop=1;jettySize=auto;html=1;entryX=0.5;entryY=0;entryDx=0;entryDy=0;exitX=0.5;exitY=1;exitDx=0;exitDy=0;fontSize=15;" edge="1" parent="1" source="Jfb6o76TlbEkAbHcnxdX-10" target="GlBKLhRnwPfLVj4DwTXZ-7">
          <mxGeometry relative="1" as="geometry">
            <mxPoint x="520.2350000000001" y="310" as="sourcePoint" />
          </mxGeometry>
        </mxCell>
        <mxCell id="Jfb6o76TlbEkAbHcnxdX-12" value="&lt;font color=&quot;#0000ff&quot;&gt;prediction&lt;/font&gt;&amp;nbsp;= make_prediction(&lt;font color=&quot;#0000ff&quot;&gt;x, self. root&lt;/font&gt;)" style="text;html=1;align=center;verticalAlign=middle;whiteSpace=wrap;rounded=0;fontSize=15;" vertex="1" parent="1">
          <mxGeometry x="411" y="246" width="220" height="30" as="geometry" />
        </mxCell>
        <mxCell id="Jfb6o76TlbEkAbHcnxdX-18" style="edgeStyle=orthogonalEdgeStyle;rounded=0;orthogonalLoop=1;jettySize=auto;html=1;entryX=0;entryY=0.5;entryDx=0;entryDy=0;exitX=0.5;exitY=1;exitDx=0;exitDy=0;fontSize=15;" edge="1" parent="1" source="Jfb6o76TlbEkAbHcnxdX-13" target="Jfb6o76TlbEkAbHcnxdX-10">
          <mxGeometry relative="1" as="geometry" />
        </mxCell>
        <mxCell id="GlBKLhRnwPfLVj4DwTXZ-4" value="self.root: Trained&amp;nbsp;&lt;div&gt;decision tree&lt;/div&gt;" style="edgeLabel;html=1;align=center;verticalAlign=middle;resizable=0;points=[];fontColor=#0000FF;fontSize=15;" vertex="1" connectable="0" parent="Jfb6o76TlbEkAbHcnxdX-18">
          <mxGeometry x="-0.2783" y="2" relative="1" as="geometry">
            <mxPoint x="-4" y="27" as="offset" />
          </mxGeometry>
        </mxCell>
        <mxCell id="Jfb6o76TlbEkAbHcnxdX-13" value="Decision Tree" style="swimlane;fontStyle=0;align=center;verticalAlign=top;childLayout=stackLayout;horizontal=1;startSize=26;horizontalStack=0;resizeParent=1;resizeLast=0;collapsible=1;marginBottom=0;rounded=0;shadow=0;strokeWidth=1;fontSize=15;" vertex="1" parent="1">
          <mxGeometry x="199" y="104" width="170" height="120" as="geometry">
            <mxRectangle x="630" y="270" width="160" height="26" as="alternateBounds" />
          </mxGeometry>
        </mxCell>
        <mxCell id="Jfb6o76TlbEkAbHcnxdX-14" value="root: class node" style="text;align=left;verticalAlign=top;spacingLeft=4;spacingRight=4;overflow=hidden;rotatable=0;points=[[0,0.5],[1,0.5]];portConstraint=eastwest;fontColor=#0000FF;fontSize=15;" vertex="1" parent="Jfb6o76TlbEkAbHcnxdX-13">
          <mxGeometry y="26" width="170" height="26" as="geometry" />
        </mxCell>
        <mxCell id="Jfb6o76TlbEkAbHcnxdX-15" value="min_samples_split: int" style="text;align=left;verticalAlign=top;spacingLeft=4;spacingRight=4;overflow=hidden;rotatable=0;points=[[0,0.5],[1,0.5]];portConstraint=eastwest;rounded=0;shadow=0;html=0;fontColor=#0000FF;fontSize=15;" vertex="1" parent="Jfb6o76TlbEkAbHcnxdX-13">
          <mxGeometry y="52" width="170" height="26" as="geometry" />
        </mxCell>
        <mxCell id="Jfb6o76TlbEkAbHcnxdX-16" value="max_depth: int" style="text;align=left;verticalAlign=top;spacingLeft=4;spacingRight=4;overflow=hidden;rotatable=0;points=[[0,0.5],[1,0.5]];portConstraint=eastwest;rounded=0;shadow=0;html=0;fontColor=#0000FF;fontSize=15;" vertex="1" parent="Jfb6o76TlbEkAbHcnxdX-13">
          <mxGeometry y="78" width="170" height="26" as="geometry" />
        </mxCell>
        <mxCell id="Jfb6o76TlbEkAbHcnxdX-17" value="" style="line;html=1;strokeWidth=1;align=left;verticalAlign=middle;spacingTop=-1;spacingLeft=3;spacingRight=3;rotatable=0;labelPosition=right;points=[];portConstraint=eastwest;fontSize=15;" vertex="1" parent="Jfb6o76TlbEkAbHcnxdX-13">
          <mxGeometry y="104" width="170" height="8" as="geometry" />
        </mxCell>
        <mxCell id="q2iyqceEJTbvAvtR94xg-3" style="edgeStyle=orthogonalEdgeStyle;rounded=0;orthogonalLoop=1;jettySize=auto;html=1;entryX=0.5;entryY=0;entryDx=0;entryDy=0;" edge="1" parent="1" source="GlBKLhRnwPfLVj4DwTXZ-1" target="Jfb6o76TlbEkAbHcnxdX-10">
          <mxGeometry relative="1" as="geometry" />
        </mxCell>
        <mxCell id="GlBKLhRnwPfLVj4DwTXZ-1" value="For each data sample &lt;font color=&quot;#0000ff&quot;&gt;x&lt;/font&gt; in&amp;nbsp;&lt;span style=&quot;color: rgb(0, 0, 255);&quot;&gt;X_test&lt;/span&gt;" style="html=1;dashed=0;whiteSpace=wrap;shape=mxgraph.dfd.loop;fontSize=15;" vertex="1" parent="1">
          <mxGeometry x="416.74" y="163" width="207" height="50" as="geometry" />
        </mxCell>
        <mxCell id="GlBKLhRnwPfLVj4DwTXZ-3" style="edgeStyle=orthogonalEdgeStyle;rounded=0;orthogonalLoop=1;jettySize=auto;html=1;entryX=0.5;entryY=0;entryDx=0;entryDy=0;entryPerimeter=0;fontSize=15;" edge="1" parent="1" source="Jfb6o76TlbEkAbHcnxdX-4" target="GlBKLhRnwPfLVj4DwTXZ-1">
          <mxGeometry relative="1" as="geometry" />
        </mxCell>
        <mxCell id="Fgmz7P4v51qQC-ssHYMH-7" style="edgeStyle=orthogonalEdgeStyle;rounded=0;orthogonalLoop=1;jettySize=auto;html=1;entryX=1;entryY=0.5;entryDx=0;entryDy=0;exitX=1;exitY=0.5;exitDx=0;exitDy=0;fontSize=15;" edge="1" parent="1" source="GlBKLhRnwPfLVj4DwTXZ-6" target="Jfb6o76TlbEkAbHcnxdX-4">
          <mxGeometry relative="1" as="geometry">
            <mxPoint x="601.1200000000001" y="485" as="sourcePoint" />
            <mxPoint x="567.7049999999999" y="84.99999999999989" as="targetPoint" />
            <Array as="points">
              <mxPoint x="718" y="455" />
              <mxPoint x="718" y="103" />
            </Array>
          </mxGeometry>
        </mxCell>
        <mxCell id="q2iyqceEJTbvAvtR94xg-6" style="edgeStyle=orthogonalEdgeStyle;rounded=0;orthogonalLoop=1;jettySize=auto;html=1;exitX=0;exitY=0.5;exitDx=0;exitDy=0;" edge="1" parent="1" source="GlBKLhRnwPfLVj4DwTXZ-6" target="tC0syxH0G_30EvLvVUs--1">
          <mxGeometry relative="1" as="geometry">
            <Array as="points">
              <mxPoint x="400" y="455" />
              <mxPoint x="400" y="520" />
              <mxPoint x="520" y="520" />
            </Array>
          </mxGeometry>
        </mxCell>
        <mxCell id="q2iyqceEJTbvAvtR94xg-7" value="True" style="edgeLabel;html=1;align=center;verticalAlign=middle;resizable=0;points=[];fontSize=15;" vertex="1" connectable="0" parent="q2iyqceEJTbvAvtR94xg-6">
          <mxGeometry x="-0.9037" y="3" relative="1" as="geometry">
            <mxPoint x="-13" y="-17" as="offset" />
          </mxGeometry>
        </mxCell>
        <mxCell id="GlBKLhRnwPfLVj4DwTXZ-6" value="Is predict all &lt;br&gt;data samples ?" style="shape=rhombus;html=1;dashed=0;whiteSpace=wrap;perimeter=rhombusPerimeter;fontSize=15;" vertex="1" parent="1">
          <mxGeometry x="439.12" y="410" width="161.76" height="90" as="geometry" />
        </mxCell>
        <mxCell id="Fgmz7P4v51qQC-ssHYMH-1" style="edgeStyle=orthogonalEdgeStyle;rounded=0;orthogonalLoop=1;jettySize=auto;html=1;entryX=0.5;entryY=0;entryDx=0;entryDy=0;exitX=0.5;exitY=1;exitDx=0;exitDy=0;fontSize=15;" edge="1" parent="1" source="GlBKLhRnwPfLVj4DwTXZ-7" target="GlBKLhRnwPfLVj4DwTXZ-6">
          <mxGeometry relative="1" as="geometry" />
        </mxCell>
        <mxCell id="GlBKLhRnwPfLVj4DwTXZ-7" value="&lt;font color=&quot;#0000ff&quot;&gt;Collecting&amp;nbsp;&lt;/font&gt;prediction of each testing sample into a list" style="html=1;dashed=0;whiteSpace=wrap;shape=partialRectangle;right=0;left=0;fontSize=15;" vertex="1" parent="1">
          <mxGeometry x="420" y="330" width="200" height="60" as="geometry" />
        </mxCell>
        <mxCell id="Fgmz7P4v51qQC-ssHYMH-8" value="False" style="text;html=1;align=center;verticalAlign=middle;resizable=0;points=[];autosize=1;strokeColor=none;fillColor=none;fontSize=15;" vertex="1" parent="1">
          <mxGeometry x="590" y="426" width="60" height="30" as="geometry" />
        </mxCell>
        <mxCell id="tC0syxH0G_30EvLvVUs--2" style="edgeStyle=orthogonalEdgeStyle;rounded=0;orthogonalLoop=1;jettySize=auto;html=1;entryX=0.5;entryY=0;entryDx=0;entryDy=0;fontSize=15;exitX=0.484;exitY=0.999;exitDx=0;exitDy=0;exitPerimeter=0;" edge="1" parent="1" source="tC0syxH0G_30EvLvVUs--1" target="Jfb6o76TlbEkAbHcnxdX-5">
          <mxGeometry relative="1" as="geometry">
            <Array as="points">
              <mxPoint x="520" y="590" />
              <mxPoint x="520" y="618" />
            </Array>
          </mxGeometry>
        </mxCell>
        <mxCell id="tC0syxH0G_30EvLvVUs--1" value="&lt;span style=&quot;background-color: initial;&quot;&gt;Output:&lt;/span&gt;&lt;br&gt;&lt;span style=&quot;background-color: initial;&quot;&gt;&lt;font color=&quot;#0000ff&quot;&gt;predictions&lt;/font&gt;: list of testing sample&#39;s prediction&amp;nbsp;&lt;/span&gt;" style="shape=parallelogram;perimeter=parallelogramPerimeter;whiteSpace=wrap;html=1;dashed=0;fontSize=15;align=center;size=0.084375;" vertex="1" parent="1">
          <mxGeometry x="410.5" y="550" width="219" height="60" as="geometry" />
        </mxCell>
      </root>
    </mxGraphModel>
  </diagram>
</mxfile>
